<?xml version="1.0" encoding="utf-8"?>
<!-- Generator: Adobe Illustrator 18.1.1, SVG Export Plug-In . SVG Version: 6.00 Build 0)  -->
<svg version="1.1" xmlns="http://www.w3.org/2000/svg" xmlns:xlink="http://www.w3.org/1999/xlink" x="0px" y="0px"
	 viewBox="0 0 269.5 93.8" enable-background="new 0 0 269.5 93.8" xml:space="preserve">
<g id="Layer_2" display="none">
	<rect x="-12.5" y="-68.8" display="inline" fill="#1381C3" width="345.7" height="247.3"/>
</g>
<g id="Layer_1">
	<path fill="#FFFFFF" d="M179.1,71.9c-0.1,0-0.1,0.1-0.2,0.1c-12,6.6-24,13.1-34.8,18.8c13.9-6.3,25.2-11.8,36-17.5
		C179.7,72.9,179.4,72.4,179.1,71.9"/>
	<path fill="#FFFFFF" d="M251.8,11.2c3.2,8.9-12.4,23.2-34.8,38c0.2,0.8,0.4,1.6,0.5,2.4c0.1,0,0.1-0.1,0.2-0.1
		C245.2,34.6,260.2,24,251.8,11.2"/>
	<g>
		<defs>
			<path id="SVGID_1_" d="M177.3,67.8C177.3,67.8,177.2,67.8,177.3,67.8c-11.2,7.9-24.3,16.2-38.5,24.9l-0.6,0.3
				c-0.2,0.1-0.2,0.4-0.1,0.6c0.1,0.2,0.4,0.2,0.6,0.1l0.5-0.2c12-6.3,25.8-13.7,39.7-21.4c0.1,0,0.1-0.1,0.2-0.1
				C178.3,70.7,177.7,69.3,177.3,67.8 M250.3,8.7C232.7-10.6,119.9,6.8,72,17.2l-1.1,0.2c-0.2,0-0.4,0.3-0.3,0.5
				c0,0.2,0.3,0.4,0.5,0.3l1.1-0.2c39.7-7.1,122.4-16.9,140.2,0.7c5.4,5.4,4.1,12.3-2.2,20.5c3.4,2.2,5.8,5.6,6.9,9.9
				C241.6,32.9,258.1,17.3,250.3,8.7z"/>
		</defs>
		<clipPath id="SVGID_2_">
			<use xlink:href="#SVGID_1_"  overflow="visible"/>
		</clipPath>
		<g clip-path="url(#SVGID_2_)">
			<defs>
				<rect id="SVGID_3_" y="0" width="269.5" height="93.8"/>
			</defs>
			<clipPath id="SVGID_4_">
				<use xlink:href="#SVGID_3_"  overflow="visible"/>
			</clipPath>
			
				<rect x="-6.2" y="-57.8" transform="matrix(-0.8829 0.4695 -0.4695 -0.8829 275.7354 25.0028)" clip-path="url(#SVGID_4_)" fill="#FFFFFF" width="282" height="209.3"/>
		</g>
	</g>
	<path fill="#FFFFFF" d="M184.4,62.7c0.2,6.8,4.5,12.4,10.1,12.4c10.9,0,15.5-13.4,15.2-22.3c-0.2-6.8-4.7-12.4-10.3-12.4
		C190.1,40.4,184,53.7,184.4,62.7 M178.6,62.4c-0.4-11.6,8.7-23.5,21.9-23.5c8.8,0,14.6,5.9,14.9,14.9c0.4,12.2-8.1,23.5-21.9,23.5
		C184.7,77.3,178.9,71.4,178.6,62.4z"/>
	<path fill="#FFFFFF" d="M53.4,59.3c-0.5,0.2-1.1,0.4-1.8,0.5c-0.8,0.2-2.1,0.4-4.1,0.7c-1.4,0.2-2.3,0.5-2.9,0.9
		c-0.5,0.4-0.8,0.8-0.9,1.4c-0.1,0.6,0.1,1.1,0.6,1.5c0.5,0.4,1.4,0.6,2.7,0.6c0.9,0,1.9-0.2,2.7-0.4c0.9-0.3,1.7-0.7,2.2-1.2
		c0.4-0.4,0.7-0.8,1-1.4C53,61.5,53.2,60.6,53.4,59.3 M64.9,52.2c0,1.1-0.2,2-0.5,3.6l-1.9,10.9c-0.2,1,0.2,1.7,1.1,2.3l-0.1,0.4
		l-11.1,0l-0.1-2.8c-1.6,1-3.6,1.8-5.3,2.3c-1.8,0.5-3.2,0.7-5.3,0.7c-3.6,0-5.7-0.4-7.1-1.6c-1.4-1.3-2.1-2.1-2.1-3.9
		c0.1-1,0.6-2.3,1.3-3.2c0.8-0.9,1.8-1.5,3-2.1c1.1-0.5,2.5-0.9,4.5-1.3c2-0.3,4.7-0.6,8.4-0.9c1.9-0.2,3.1-0.6,3.7-0.8
		c0.8-0.3,1.1-0.6,1.2-1.3c0.2-1.1-0.2-1.8-1.6-2.1c-4-0.8-11.5,0.5-15.4,1.5l2.1-5.7c5.1-0.7,9.9-1.2,14.9-1.2
		C62.4,46.9,65,49.2,64.9,52.2z"/>
	<path fill="#FFFFFF" d="M97.2,69.4l3.9-21.8h10.7l-3.9,21.8H97.2 M101.6,42.5c0.3-1.8,3.1-3.2,6.3-3.2c3.2,0,5.5,1.5,5.2,3.2
		c-0.3,1.8-3.2,3.2-6.3,3.2C103.6,45.8,101.3,44.3,101.6,42.5z"/>
	<g>
		<defs>
			<rect id="SVGID_5_" y="0" width="269.5" height="93.8"/>
		</defs>
		<clipPath id="SVGID_6_">
			<use xlink:href="#SVGID_5_"  overflow="visible"/>
		</clipPath>
		<path clip-path="url(#SVGID_6_)" fill="#FFFFFF" d="M149.5,59.4c-0.5,0.2-1.1,0.3-1.8,0.5c-0.7,0.2-2.1,0.4-4.1,0.7
			c-1.4,0.2-2.3,0.5-2.9,0.9c-0.5,0.4-0.8,0.8-0.9,1.4c-0.1,0.6,0.1,1.1,0.6,1.4c0.5,0.4,1.4,0.6,2.7,0.6c0.9,0,1.8-0.1,2.7-0.4
			c0.9-0.3,1.7-0.7,2.3-1.2c0.4-0.4,0.7-0.9,1-1.4C149.1,61.5,149.3,60.7,149.5,59.4 M161,52.2c0,1.1-0.2,2-0.5,3.6l-1.9,10.9
			c-0.2,1,0.2,1.7,1.1,2.3l-0.1,0.4l-11.1,0l-0.1-2.8c-1.6,1-3.6,1.8-5.3,2.3c-1.8,0.5-3.2,0.7-5.4,0.7c-3.6,0-5.6-0.4-7.1-1.6
			c-1.5-1.3-2.2-2.1-2.1-3.9c0-1,0.6-2.3,1.3-3.2c0.8-0.9,1.8-1.5,3-2.1c1.1-0.5,2.5-0.9,4.4-1.3c2-0.3,4.7-0.6,8.4-0.9
			c1.9-0.2,3.1-0.6,3.6-0.8c0.8-0.3,1.1-0.6,1.2-1.3c0.2-1.1-0.2-1.8-1.6-2.1c-4-0.8-11.5,0.5-15.4,1.5l2.1-5.7
			c5.1-0.7,9.9-1.2,14.9-1.2C158.5,47,161.1,49.3,161,52.2z"/>
		<path clip-path="url(#SVGID_6_)" fill="#FFFFFF" d="M31,61.5c-3.5,0.7-5.4,1-8.8,1c-5.1,0-9.1-2.5-8.9-7.2
			c0.2-3.1,3.8-9.6,13.1-9.6c2.9,0,5.2,0.5,8.3,2.3l1.4-7.6c-4.2-1.6-6.9-1.8-10.5-1.8C13.3,38.8,1.6,44.3,0.1,55.6
			C-1.4,67,12.6,69.9,18.8,69.9c3.6,0,7.3-0.2,10.8-0.5L31,61.5"/>
	</g>
	<path fill="#FFFFFF" d="M117.6,47.5l0.8-4.4l11.1-2.4l-1.2,6.9h5.5l-1,4.4l-5.3,0l-3.2,17.5c0,0-10.7-0.1-10.8,0l3.2-17.5h-4.1
		l0.8-4.4H117.6"/>
	<polyline fill="#FFFFFF" points="171.8,69.4 161,69.4 166.4,39 177,39.3 171.8,69.4 	"/>
	<path fill="#FFFFFF" d="M83.1,52.7c-1.4,0-2.7,0.4-3.8,1.3c-1.1,0.8-1.8,2.1-2.1,3.7c-0.3,1.9-0.1,3.3,0.6,4.1
		c0.8,0.8,1.9,1.3,3.3,1.3c1,0,2-0.2,2.7-0.5c0.9-0.5,1.5-1,2.1-1.8c0.6-0.8,1-1.8,1.2-2.9c0.3-1.7,0-3-0.8-3.9
		C85.6,53.1,84.5,52.7,83.1,52.7 M63.7,76.9l5.2-29.2h9.4l-0.7,3.7c0.8-1.1,2.1-2,3.9-2.8c1.8-0.7,3.8-1.3,6-1.3
		c2.4,0,3.9,0.1,5.8,1.1c1.8,1,3.1,2.3,3.8,4.1c0.7,1.8,0.8,3.8,0.5,5.9c-0.6,3.6-2.4,6.4-5.3,8.5c-2.9,2.1-5.4,2.6-9.1,2.6
		c-1.3,0-2.4-0.1-3.3-0.4c-0.9-0.2-1.6-0.5-2.1-0.9c-0.5-0.3-1.1-0.8-1.8-1.6l-1.7,10H63.7z"/>
	<path fill="#FFFFFF" d="M257.1,55.4c-0.1-1.8-0.9-2.9-2.8-2.9c-4.4,0-9,8.6-9.8,12C251.7,64.4,257.3,60.2,257.1,55.4 M258.1,68.8
		l0.8,0.6c-2.1,4.3-6.5,7.8-11.6,7.8c-4.2,0-7.6-2.8-7.8-8c-0.3-9.3,8.4-18,15.6-18c3.1,0,5.9,1.3,6.1,4.7c0.3,7.4-10.2,9.7-17,9.9
		c-0.2,0.8-0.3,1.6-0.3,2.7c0.1,3.1,2,5.7,5.8,5.7C253,74.1,256.4,71.4,258.1,68.8z"/>
	<path fill="#FFFFFF" d="M215.3,55.1c0.7-0.1,1.9-0.2,2.4-0.2c0.8,0,1.5,0.1,1.6,0.9c0,0.5-0.8,3.8-1,4.5l-1.7,7.3
		c-0.7,3-1.4,6.1-2,8.6h4.3l2.4-11.6c7.3-7.6,10.1-10.1,11.9-10.1c0.8,0,1.3,0.4,1.3,1.3c0,1.3-0.8,4.4-1.1,5.3l-2.4,8.5
		c-0.6,1.9-1,3.6-0.9,4.8c0.1,1.9,1.2,2.7,2.9,2.7c3.1,0,5.4-3.3,7.4-6.4l-0.6-1.1c-0.8,1.3-2.7,4.1-4.1,4.1c-0.5,0-0.9-0.3-0.9-1.1
		c0-1,0.4-2.5,0.7-3.5l2.7-9.9c0.7-2.7,1.1-4.5,1.1-5.4c-0.1-1.9-1.1-2.7-2.8-2.7c-2.8,0-6.5,2.1-14.4,11.1h-0.1l1-4.4
		c0.5-2.4,1.1-5,1.6-6.7c-2.7,1-6.6,2.1-9.1,2.6L215.3,55.1"/>
	<path fill="#FFFFFF" d="M262.4,50.7c0,0.2,0.1,0.4,0.2,0.5c0.2,0.3,0.5,0.4,0.9,0.4c0.2,0,0.4,0,0.5-0.1c0.3-0.1,0.5-0.3,0.5-0.6
		c0-0.2-0.1-0.4-0.2-0.5c-0.1-0.1-0.3-0.2-0.6-0.2l-0.5-0.1c-0.3-0.1-0.6-0.2-0.7-0.3c-0.2-0.2-0.4-0.4-0.4-0.7
		c0-0.4,0.1-0.6,0.4-0.9c0.2-0.2,0.6-0.3,1-0.3c0.4,0,0.7,0.1,1,0.3c0.3,0.2,0.4,0.5,0.4,1h-0.5c0-0.2-0.1-0.4-0.2-0.5
		c-0.2-0.2-0.4-0.3-0.8-0.3c-0.3,0-0.5,0.1-0.7,0.2c-0.1,0.1-0.2,0.3-0.2,0.5c0,0.2,0.1,0.3,0.2,0.4c0.1,0.1,0.3,0.1,0.7,0.2
		l0.5,0.1c0.3,0.1,0.5,0.1,0.6,0.3c0.2,0.2,0.4,0.5,0.4,0.8c0,0.4-0.2,0.7-0.5,0.9c-0.3,0.2-0.7,0.3-1.1,0.3c-0.5,0-0.9-0.1-1.1-0.4
		c-0.3-0.2-0.4-0.6-0.4-1H262.4"/>
	<path fill="#FFFFFF" d="M265.7,48h0.8l1.1,3.3l1.1-3.3h0.8v4H269v-2.3c0-0.1,0-0.2,0-0.4c0-0.2,0-0.4,0-0.6l-1.1,3.3h-0.5l-1.1-3.3
		v0.1c0,0.1,0,0.2,0,0.4c0,0.2,0,0.3,0,0.4V52h-0.5V48"/>
</g>
</svg>
