<?xml version="1.0" encoding="utf-8"?>
<!-- Generator: Adobe Illustrator 18.1.1, SVG Export Plug-In . SVG Version: 6.00 Build 0)  -->
<svg version="1.1" id="Layer_1" xmlns="http://www.w3.org/2000/svg" xmlns:xlink="http://www.w3.org/1999/xlink" x="0px" y="0px"
	 viewBox="0 0 145.2 174" enable-background="new 0 0 145.2 174" xml:space="preserve">
<polygon fill-rule="evenodd" clip-rule="evenodd" fill="#FFFFFF" points="-33.1,287.8 159.6,287.8 159.6,480.5 -33.1,480.5 
	-33.1,287.8 "/>
<polygon fill-rule="evenodd" clip-rule="evenodd" fill="#FFFFFF" points="3.6,39.8 3.6,87.9 73.5,113.5 143.2,87.9 143.2,39.8 
	73.5,65.3 3.6,39.8 "/>
<polygon fill-rule="evenodd" clip-rule="evenodd" fill="#FFFFFF" points="3.6,98.4 3.6,146.6 73.5,172.1 143.2,146.6 143.2,98.4 
	73.5,124 3.6,98.4 "/>
<polygon fill-rule="evenodd" clip-rule="evenodd" fill="#FFFFFF" points="64.2,9.3 70.6,9.3 75.1,27.1 79.7,9.3 86,9.3 79.5,34.8 
	70.8,34.8 64.2,9.3 "/>
<path fill-rule="evenodd" clip-rule="evenodd" fill="#FFFFFF" d="M100.3,9.3H88.2v25.5h6.5V19.6c0-3.4,2.2-3.4,5.6-3.4V9.3
	L100.3,9.3z"/>
<path fill-rule="evenodd" clip-rule="evenodd" fill="#FFFFFF" d="M133.9,16.2c2.2,0,2.9,0.7,2.9,3.2v15.5h6.5V16.2
	c0-2.7-1.4-7.2-6.7-6.9h-12.1v25.5h6.5V16.2H133.9L133.9,16.2z"/>
<path fill-rule="evenodd" clip-rule="evenodd" fill="#FFFFFF" d="M111.4,9.3c-10.5,0-9.5,6.4-9.5,12.4c0,6.7-0.9,13.1,9.6,13.1
	c10.5,0,9.3-6.4,9.3-13.3C120.8,14.8,122.1,9.3,111.4,9.3L111.4,9.3z M111.4,28.2c-2.9,0-3.1-2.2-3.1-6.4c0-4,0.4-6,3.1-6
	c2.7,0,2.9,1.9,3,5.9C114.5,26.1,114.4,28.2,111.4,28.2L111.4,28.2z"/>
<path fill-rule="evenodd" clip-rule="evenodd" fill="#FFFFFF" d="M51.7,24.6l11.5,0c0-0.8,0-1.3,0-2.1c0-6.7,1-13.2-8.9-13.2
	c-10.5,0-9.5,7.2-9.5,13.2c0,5.4-0.1,12.3,10.3,12.3h8v-6.3h-8.5C53.2,28.5,51.9,27,51.7,24.6L51.7,24.6z M51.7,17.6
	c0-3,4.6-2.9,4.6-0.4V19h-4.6V17.6L51.7,17.6z"/>
<path fill-rule="evenodd" clip-rule="evenodd" fill="#FFFFFF" d="M22.8,2.1v32.7h6.5V18.9c0.1-3.6,6.2-3.6,6.2-0.1v16.1H42v-18
	c0-4.2-2.7-7.2-7.6-7.2c-2.9,0-4.7,0.4-5.1,0.9V2.1H22.8L22.8,2.1z"/>
<path fill-rule="evenodd" clip-rule="evenodd" fill="#FFFFFF" d="M19.8,2.1h-7.3C3.1,2.1,1.6,9.9,1.6,18.6c0,8.7,1.6,16.2,9.5,16.2
	h8.7v-6.9h-6.3c-4.6,0-4.3-6.3-4.3-9.5c0-3.2-0.9-9,5.4-9.2h5.2V2.1L19.8,2.1z"/>
</svg>
