<?xml version="1.0" encoding="utf-8"?>
<!-- Generator: Adobe Illustrator 18.1.1, SVG Export Plug-In . SVG Version: 6.00 Build 0)  -->
<svg version="1.1" id="Layer_1" xmlns="http://www.w3.org/2000/svg" xmlns:xlink="http://www.w3.org/1999/xlink" x="0px" y="0px"
	 viewBox="0 0 80 80" enable-background="new 0 0 80 80" xml:space="preserve">
<path id="facebook-circle-icon" fill="#A5A5A5" d="M39,3.7c-19.9,0-36,16.1-36,36c0,19.9,16.1,36,36,36c19.9,0,36-16.1,36-36
	C75,19.8,58.9,3.7,39,3.7z M49.7,24.9c0,0-3.6,0-5,0c-1.8,0-2.1,0.7-2.1,2.6c0,1.5,0,4.4,0,4.4h7.2L49,39.7h-6.5v23.3h-9.3V39.8
	h-4.8v-7.9h4.8c0,0,0-1.1,0-6.2c0-5.8,3.1-8.9,10-8.9c1.1,0,6.4,0,6.4,0V24.9L49.7,24.9z"/>
</svg>
