<?xml version="1.0" encoding="utf-8"?>
<!-- Generator: Adobe Illustrator 18.1.1, SVG Export Plug-In . SVG Version: 6.00 Build 0)  -->
<svg version="1.1" id="Layer_1" xmlns="http://www.w3.org/2000/svg" xmlns:xlink="http://www.w3.org/1999/xlink" x="0px" y="0px"
	 viewBox="0 0 80 80" enable-background="new 0 0 80 80" xml:space="preserve">
<path id="instagram-circle-icon" fill="#A5A5A5" d="M56.1,24v4.4c0,0.7-0.6,1.3-1.3,1.3h-4.3c-0.7,0-1.3-0.6-1.3-1.3V24
	c0-0.7,0.6-1.3,1.3-1.3h4.3C55.5,22.7,56.1,23.3,56.1,24z M39.5,45.8c3.3,0,5.9-2.6,5.9-5.9c0-3.3-2.6-5.9-5.9-5.9s-5.9,2.6-5.9,5.9
	C33.6,43.1,36.3,45.8,39.5,45.8z M75,39.7c0,19.9-16.1,36-36,36c-19.9,0-36-16.1-36-36c0-19.9,16.1-36,36-36
	C58.9,3.7,75,19.8,75,39.7z M59.8,33.9H47.9c1.2,1.7,1.9,3.8,1.9,6c0,5.7-4.6,10.4-10.4,10.4c-5.7,0-10.4-4.6-10.4-10.4
	c0-2.2,0.7-4.3,1.9-6H19.3V52c0,4.4,3.6,8,8,8h24.5c4.4,0,8-3.6,8-8V33.9z M39.5,47.9c4.4,0,8-3.6,8-8c0-2.4-1.1-4.5-2.7-6
	c-0.6-0.5-1.2-0.9-2-1.3c-1-0.5-2.1-0.7-3.3-0.7c-1.2,0-2.3,0.3-3.3,0.7c-0.7,0.3-1.4,0.8-2,1.3c-1.7,1.5-2.7,3.6-2.7,6
	C31.5,44.3,35.1,47.9,39.5,47.9z M59.8,27.3c0-4.4-3.6-8-8-8H29.9v10.1h-1.6V19.3h-0.9c-0.1,0-0.1,0-0.2,0v10.1h-1.6v-9.9
	c-0.4,0.1-0.8,0.2-1.2,0.4v9.5h-1.6v-8.6c-2,1.5-3.4,3.8-3.4,6.5v5.3h12.8c1.9-1.9,4.5-3.1,7.4-3.1c2.9,0,5.5,1.2,7.4,3.1h12.9
	L59.8,27.3L59.8,27.3z"/>
</svg>
