<?xml version="1.0" encoding="utf-8"?>
<!-- Generator: Adobe Illustrator 18.1.1, SVG Export Plug-In . SVG Version: 6.00 Build 0)  -->
<svg version="1.1" xmlns="http://www.w3.org/2000/svg" xmlns:xlink="http://www.w3.org/1999/xlink" x="0px" y="0px"
	 viewBox="0 0 600 228.2" enable-background="new 0 0 600 228.2" xml:space="preserve">
<g id="Layer_1">
	<g id="lesY59.tif">
		
			<image overflow="visible" width="600" height="279" id="Layer_0_1_" xlink:href="42FBD2F923840236.png"  transform="matrix(1.4283 0 0 1.4283 -1070.0125 -199.6798)">
		</image>
	</g>
</g>
<g id="Layer_2">
	<path fill="#030304" d="M1485.8,144.8l-257-88.5c0,0-133.5-47.2-218.2-77.1c-1.2-11.3-14.1-5-14.1-5c-1.9-0.7-3.8-1.4-5.7-2
		c0.4-0.5,0.9-0.9,1.4-1.4c0.6-0.5,0.4-1.4-0.3-1.7L945.9-48c0,0-15,0.4-7.9,14.1l10.9,3.6l-0.6,0.9l-13.6,19.3l-23.9-8.6l-2.5-1
		c0,0-6.5-2-6.5-2c-0.5-0.2-1.3-1.8-1.6-2.2c-5.4-7.2-11.2-12.8-18.4-18.3c-32.3,2.2-17,30.5-17,30.5c8.6,3.4,29.9,1,30,1
		c0.1,0,10.9,5.1,15,6.5c0,0,4.9,1.7,13.1,4.7c0.3,1.2,0.8,2.5,1.6,4L973.6,21c0.4,0.1,1.1-1.2,1.1-1.6c0-0.2,0-0.3-0.1-0.5
		c61.2,21.7,143.6,51,143.6,51l351.2,129c12.5,3.5,41,6.8,46.2-13.5C1523.9,154.2,1485.8,144.8,1485.8,144.8z M976.3,4.4l-26-9.5
		l12.5-19.2l26.6,9.3L976.3,4.4z M1504.6,181.6c-8.8,13-38,2.8-38,2.8l-473-173.5l12.4-20.1l465.6,162.1
		C1514.1,166.8,1504.6,181.6,1504.6,181.6z"/>
	<path fill="#030304" d="M552.1,81.7c-21.3,32.5-299.6-34.8-299.6-34.8S120.1,15.5,67.3,2.6S1.1,29,1.1,29
		c-2.5,15-1.3,31.5,9.1,43.4c6.2,7.2,15.1,11.1,23.9,14.1c28.2,9.5,56.1,19.5,84.2,29.4c30.4,10.8,60.9,21.6,91.3,32.4
		c2.3,0.8,4.6,1.6,7,2.5l58.4,20.6c2.9,1,6.2,0.2,8.3-2.1c1.6-1.7,3.1-3.5,4.6-5.3c2.2-2.6,1.1-6.6-2.2-7.8
		c-1.1-0.4-2.2-0.8-3.4-1.2c0,0,0-0.1,0-0.1v-20.3c0-0.2-0.1-0.4-0.2-0.5l-2.5-1.9c-0.2-0.1-0.2-0.3-0.2-0.5V93.8
		c0-0.4,0.3-0.7,0.8-0.7h3.2c0.4,0,0.8-0.3,0.8-0.7V81c0,0,0.1-0.8,0-2c19.9,5.8,39.8,11.6,59.6,17.5c29.3,8.8,58.6,17.8,87.7,27.4
		c20.2,6.7,40.6,13.4,60.2,22c18.4,8.1,32.3,23.4,37.3,43.2c1.9,7.4,1.7,47.7,18,37.4c8.9-5.7,14-15.7,18-25.2
		c4.6-11,8.9-22.4,12.9-33.7c9.2-26.3,15.7-53.4,19.9-80.9C609.9,5.4,573.4,49.2,552.1,81.7z M66.4,61.6c0,0.9-1.1,1.4-1.9,1
		l-1.8-0.8c-0.9-0.4-1.9,0.2-1.9,1v15.4c-2.7-0.9-5.5-1.8-8.2-2.7c-8.2-2.6-17.5-4.3-24.4-10c-0.3-0.2-0.5-0.4-0.8-0.6
		c-7.3-6.6-10.8-17.6-8.9-27.3c2-10.1,12.1-16.4,21.4-19c8.2-2.3,16.1-1.7,24-0.1l-0.1,1.4c0,0,0,0.1,0,0.1v10.7
		c0,0.6,0.6,1.2,1.3,1.2c0.7,0,1.3,0.5,1.3,1.2V61.6z M106.4,75.5c0,0.9-1.1,1.5-2,1l-1.7-0.9c-0.9-0.4-2,0.1-2,1v15.8
		c-5.6-2-11.2-3.9-16.7-5.8c-2.7-1-5.4-1.9-8.2-2.9V69.2c0-0.3-0.2-0.7-0.5-0.9l-1.7-1.3c-0.3-0.2-0.5-0.5-0.5-0.9V33
		c0-0.6,0.6-1.2,1.3-1.2H76c0.7,0,1.3-0.5,1.3-1.2v-8.7c2.1,0.6,4.3,1.2,6.4,1.8c6.8,1.8,13.6,3.6,20.4,5.4l-0.4,4.4
		c0,0,0,0.1,0,0.1v10.8c0,0.6,0.6,1.2,1.3,1.2s1.3,0.5,1.3,1.2V75.5z M271.7,127.4c0,0.5-0.6,0.8-1.1,0.6c-2.5-1-5.3,0.6-5.3,3v18.2
		c-8.1-2.8-16.3-5.6-24.4-8.3c-32.2-11-64.3-22.1-96.5-33.2c-9.4-3.3-19-6.6-28.6-9.9V82.9c0-0.4-0.2-0.7-0.6-1l-1.5-0.9
		c-0.4-0.2-0.6-0.6-0.6-1V46.7c0-0.6,0.6-1.2,1.3-1.2h1.5c0.7,0,1.3-0.5,1.3-1.2v-9.8c0,0,0.1-0.8,0-2c11.9,3.2,23.8,6.4,35.7,9.7
		c30.8,8.4,61.5,17,92.2,25.7c8,2.3,16,4.5,23.9,6.8l-0.5,5c0,0,0,0,0,0.1v12.6c0,0.4,0.3,0.7,0.8,0.7h1.5c0.4,0,0.8,0.3,0.8,0.7
		V127.4z M591.7,81.6l0,0.7c0,1.8-1.5,3.3-3.4,3.3c0,0-0.1,0-0.1,0c-1.9,0-3.3-1.6-3.3-3.4l0-0.8c0.2-6.9-0.4-10.9-1.7-11.8
		c-0.7-0.5-1.1-0.4-1.4-0.3c-2.5,0.9-6.9,6.2-13.4,26.5c-0.3,1-0.6,1.8-0.8,2.4c-7.6,22.1-14.2,42-18.4,62.9
		c-2.7,13.4-5,26.4-2.6,38.3c0.4,1.8-0.8,3.6-2.6,4c-0.2,0-0.4,0.1-0.7,0.1c-1.6,0-3-1.1-3.3-2.7c-2.7-13.1-0.3-26.9,2.6-41
		c4.3-21.2,11-41.4,18.6-63.7c0.2-0.5,0.4-1.3,0.7-2.3c4.6-14.5,9.9-28.3,17.6-30.9c2.5-0.9,5.1-0.5,7.4,1.1
		C592.1,67.5,591.9,76.3,591.7,81.6z"/>
</g>
</svg>
