<?xml version="1.0" encoding="utf-8"?>
<!-- Generator: Adobe Illustrator 18.1.1, SVG Export Plug-In . SVG Version: 6.00 Build 0)  -->
<svg version="1.1" id="Layer_1" xmlns="http://www.w3.org/2000/svg" xmlns:xlink="http://www.w3.org/1999/xlink" x="0px" y="0px"
	 viewBox="0 0 80 80" enable-background="new 0 0 80 80" xml:space="preserve">
<path id="youtube-4-icon" fill="#A5A5A5" d="M45.5,45.3c-0.8,0-1.5,0.5-2,1.2v-5.4h-2.3v16.8h2.3v-0.9c0.6,0.8,1.3,1.1,2.2,1.1
	c1.5,0,2.1-1.2,2.1-2.7v-6.9C47.7,46.7,47.1,45.3,45.5,45.3z M45.3,54.9c0,0.4-0.1,0.7-0.2,0.9c-0.3,0.3-0.8,0.3-1.2,0.1
	c-0.2-0.1-0.4-0.2-0.5-0.4v-7.7c0.2-0.2,0.3-0.3,0.5-0.4c0.4-0.2,0.9-0.2,1.2,0.2c0.2,0.2,0.2,0.5,0.2,0.9V54.9L45.3,54.9z
	 M37.6,30.6v-6c0-0.7,0.3-1.2,1-1.2c0.7,0,1.1,0.5,1.1,1.2v6c0,0.7-0.4,1.2-1,1.2C38,31.9,37.6,31.3,37.6,30.6z M36.6,45.5h2.3v12.4
	h-2.3v-1.4c-0.4,0.5-0.9,0.9-1.3,1.1c-1.2,0.7-2.9,0.7-2.9-1.8V45.5h2.3v9.5c0,0.5,0.1,0.8,0.6,0.8c0.4,0,1.1-0.6,1.4-0.9V45.5z
	 M32.3,43.5h-2.7v14.3h-2.6V43.5h-2.7v-2.4h7.9V43.5L32.3,43.5z M52.9,45.2c-2.1,0-3.5,1.5-3.5,3.6v5.5c0,2.2,1.1,3.8,3.3,3.8
	c2.4,0,3.4-1.4,3.4-3.8v-0.9h-2.4v0.9c0,1.1-0.1,1.7-1,1.7c-0.9,0-1-0.8-1-1.7v-2.3h4.4v-3.1C56.2,46.6,55.1,45.2,52.9,45.2z
	 M53.8,50h-2v-1.2c0-0.9,0.2-1.5,1-1.5c0.8,0,1,0.6,1,1.5V50L53.8,50z M39.9,3.7c-20,0-36.2,16.2-36.2,36.2s16.2,36.2,36.2,36.2
	c20,0,36.2-16.2,36.2-36.2S59.9,3.7,39.9,3.7z M44.2,21h2.4v10c0,0.5,0.1,0.9,0.6,0.9c0.5,0,1.1-0.6,1.4-1V21h2.4v13h-2.4v-1.4
	c-1,1.2-2.1,1.6-2.8,1.6c-1.3,0-1.7-1-1.7-2.3V21L44.2,21z M38.6,20.9c2,0,3.5,1.5,3.5,3.5v6.4c0,2.2-1.5,3.5-3.5,3.5
	c-2.3,0-3.5-1.2-3.5-3.5v-6.4C35.1,22.3,36.5,20.9,38.6,20.9z M28.9,16.4l1.9,7l1.7-7h2.8l-3.2,10.5V34h-2.7v-7.1l-3.2-10.5H28.9z
	 M59.8,56.4c0,3.1-2.5,5.5-5.5,5.5H25.9c-3.1,0-5.5-2.5-5.5-5.5v-14c0-3.1,2.5-5.5,5.5-5.5h28.4c3.1,0,5.5,2.5,5.5,5.5V56.4z"/>
</svg>
