<?xml version="1.0" encoding="utf-8"?>
<!-- Generator: Adobe Illustrator 18.1.1, SVG Export Plug-In . SVG Version: 6.00 Build 0)  -->
<svg version="1.1" id="Layer_1" xmlns="http://www.w3.org/2000/svg" xmlns:xlink="http://www.w3.org/1999/xlink" x="0px" y="0px"
	 viewBox="0 0 200 200" enable-background="new 0 0 200 200" xml:space="preserve">
<g>
	<rect x="0" y="0" fill="#DBDE34" width="200" height="200"/>
</g>
<g>
	<path fill="#4B4648" d="M33.3,51.9c0,0.2,0.1,0.3,0.3,0.3h9c0.4,0.2,0.5,0.8,0.5,1.4c0,0.6-0.2,1.2-0.5,1.4h-9
		c-0.3,0-0.3,0.1-0.3,0.3v9c0,0.2,0.1,0.3,0.3,0.3h3.5c0.4,0.1,0.6,0.7,0.6,1.4c0,0.6-0.2,1.3-0.6,1.4h-10c-0.4-0.1-0.6-0.8-0.6-1.4
		c0-0.6,0.2-1.2,0.6-1.4h2.6c0.2,0,0.3-0.1,0.3-0.3V43c0-0.2-0.1-0.3-0.3-0.3h-2.6c-0.3-0.1-0.6-0.8-0.6-1.4c0-0.6,0.2-1.3,0.6-1.4
		h17.1c1.5,0,1.8,0.4,1.9,1.6c0.1,1.2,0.1,4.1,0,5.8c-0.6,0.7-2.4,0.7-3,0c0-1.4,0.1-2.5,0-3.5c0-0.8-0.3-1.1-1.2-1.1h-8.6V51.9z"/>
	<path fill="#4B4648" d="M60.3,49c1.7,0,2.6,0.6,2.8,0.9c0.2,0.9-0.4,2.5-1.3,2.8c-0.2-0.2-0.8-0.6-2-0.6c-2.6,0-4.4,2.2-5,3.8
		c-0.6,1.5-0.8,2.9-0.8,4.8v3.8c0,0.2,0.1,0.3,0.3,0.3h3.8c0.4,0.1,0.6,0.7,0.6,1.3c0,0.6-0.2,1.2-0.6,1.3h-9.8
		c-0.4-0.1-0.6-0.7-0.6-1.3c0-0.6,0.2-1.2,0.6-1.3h2.3c0.2,0,0.3-0.1,0.3-0.3V52.8c0-0.5-0.2-0.7-0.6-0.7H48
		c-0.2-0.1-0.5-0.6-0.5-1.2c0-0.6,0.2-1.1,0.5-1.3l5-0.3c0.6,0,0.8,0.1,0.8,0.8v3l0.2,0.1C55.1,51,57.1,49,60.3,49z"/>
	<path fill="#4B4648" d="M74.1,65.2c2.8,0,4.9-1,5.5-1.3c0.4,0,0.9,0.4,1.1,1c0.2,0.6,0.2,1.3-0.1,1.5c-0.8,0.5-3,1.6-6.7,1.6
		c-5.6,0-9.7-3.2-9.7-9.3c0-6.1,4.3-9.6,8.9-9.6c5.4,0,7.6,4.2,7.6,8.1c0,0.4-0.1,0.5-1,0.7c-3,0.6-9.2,1.3-12.3,1.4
		C67.7,63.1,70.6,65.2,74.1,65.2z M76.5,55.8c0.6-0.1,0.8-0.2,0.8-0.5c0-1.6-1.5-3.7-4.2-3.7c-2.7,0-5.1,1.8-5.5,5.2
		C69.9,56.8,74.7,56.2,76.5,55.8z"/>
	<path fill="#4B4648" d="M98.1,49c5.6,0,6.6,3.7,6.6,8.2v7.2c0,0.2,0.1,0.3,0.3,0.3h2.4c0.4,0.1,0.6,0.7,0.6,1.3
		c0,0.6-0.2,1.2-0.6,1.3h-8.4c-0.4-0.1-0.6-0.7-0.6-1.3c0-0.6,0.2-1.2,0.6-1.3h2.3c0.3,0,0.3-0.1,0.3-0.3v-6.9
		c0-3.8-1.1-5.8-4.2-5.8c-3,0-5.2,2.1-6,4c-0.5,1-0.6,1.8-0.6,3v5.6c0,0.2,0.1,0.3,0.3,0.3h2.4c0.3,0.1,0.6,0.7,0.6,1.3
		c0,0.6-0.2,1.2-0.6,1.3h-8.4c-0.4-0.1-0.6-0.7-0.6-1.3c0-0.6,0.2-1.2,0.6-1.3h2.3c0.2,0,0.3-0.1,0.3-0.3V52.8
		c0-0.5-0.2-0.7-0.6-0.7h-2.1c-0.2-0.1-0.5-0.7-0.5-1.3c0-0.6,0.2-1.1,0.5-1.2l5-0.3c0.6,0,0.8,0.1,0.8,0.8v2.6l0.2,0
		C91.7,51.2,93.9,49,98.1,49z"/>
	<path fill="#4B4648" d="M122.1,55.4c0-0.6,0-2.4-0.2-2.9c-0.2-0.4-0.8-0.8-2.7-0.8c-4.2,0-6.7,3.2-6.7,7c0,3.9,2.4,6.6,6.8,6.6
		c2.7,0,4.7-1.1,5.2-1.4c1,0,1.7,1.5,1.3,2.5c-0.8,0.6-3.1,1.7-6.8,1.7c-6,0-9.7-3.4-9.7-9.3c0-5.5,3.9-9.6,10.4-9.6
		c3.4,0,4.6,0.8,5,1.4c0.4,0.6,0.4,3.9,0.4,5C124.4,56,122.6,55.9,122.1,55.4z"/>
	<path fill="#4B4648" d="M142.4,49c5.5,0,6.6,3.7,6.6,8.2v7.2c0,0.2,0.1,0.3,0.3,0.3h2.4c0.3,0.1,0.6,0.7,0.6,1.3
		c0,0.6-0.2,1.2-0.6,1.3h-8.4c-0.4-0.1-0.6-0.7-0.6-1.3c0-0.6,0.2-1.2,0.6-1.3h2.3c0.2,0,0.3-0.1,0.3-0.3v-6.9
		c0-3.8-1.1-5.8-4.3-5.8c-3,0-5.2,2.1-6,4c-0.4,1-0.6,1.8-0.6,3v5.6c0,0.2,0.1,0.3,0.3,0.3h2.4c0.4,0.1,0.6,0.7,0.6,1.3
		c0,0.6-0.2,1.2-0.6,1.3h-8.4c-0.4-0.1-0.6-0.7-0.6-1.3c0-0.6,0.3-1.2,0.6-1.3h2.3c0.2,0,0.3-0.1,0.3-0.3V41.3
		c0-0.5-0.1-0.6-0.6-0.6h-2.1c-0.3-0.1-0.5-0.7-0.5-1.3c0-0.6,0.2-1.1,0.5-1.3l5-0.3c0.6,0,0.8,0.1,0.8,0.8v14.2l0.1,0
		C136.1,51.2,138.3,49,142.4,49z"/>
</g>
<g>
	<path fill="#4B4648" d="M26.8,96.5c0-7.2,4.9-14.3,14.3-14.3c9,0,14.3,6.4,14.3,14.2c0,5.3-2.1,9.6-5.8,12c3.3,5.5,5.1,8.2,7.6,8.2
		c1.8,0,2.7-1.6,3-2.6c1.1-0.2,2.6,0.5,2.6,1.5c-0.5,1.3-2.1,4-5.7,4c-4.1,0-6.4-3.1-10.4-9.6c-1.6,0.6-3.4,0.9-5.4,0.9
		c-4.9,0-6.8-2.4-6.8-5c0-3.1,2.4-5.4,6.1-5.4c3,0,4.9,1.7,7.3,5.3c2.6-1.8,4-5.1,4-9.1c0-6.8-4.5-11.4-10.9-11.4
		c-6.9,0-10.9,4.9-10.9,11.3c0,3.2,1.1,5.4,2.1,6.9c0,1.3-1.9,2.2-2.8,1.8C28.3,103.9,26.8,100.8,26.8,96.5z M40.3,103.3
		c-1.5,0-2.6,0.8-2.6,2.2c0,1.4,1.1,2.4,3.8,2.4c1.2,0,2.4-0.2,3.4-0.5C43.1,104.3,41.9,103.3,40.3,103.3z"/>
	<path fill="#4B4648" d="M68.6,110.8c-5.2,0-6.2-3.7-6.2-8.2v-6.8c0-0.5-0.1-0.7-0.6-0.7h-2.1c-0.3-0.1-0.5-0.6-0.5-1.2
		c0-0.6,0.2-1.1,0.5-1.3l5-0.3c0.6,0,0.8,0.2,0.8,0.8v9.2c0,3.7,1.1,5.8,4,5.8c3,0,4.8-2.1,5.5-3.6c0.7-1.3,0.8-2.3,0.8-3.8v-5
		c0-0.5-0.1-0.7-0.6-0.7h-2.1c-0.3-0.1-0.5-0.6-0.5-1.2c0-0.6,0.2-1.1,0.5-1.3l5-0.3c0.6,0,0.8,0.1,0.8,0.8v10.2
		c0,1.5,0.1,2.8,0.2,3.4c0.2,0.8,0.4,1,1.1,1h1.4c0.4,0.1,0.6,0.7,0.6,1.3c0,0.6-0.2,1.2-0.6,1.3h-4.3c-0.6,0-0.9-0.1-1.1-0.6
		c-0.2-0.5-0.4-2-0.5-2.6l-0.1-0.1C74.6,108.6,72.4,110.8,68.6,110.8z"/>
	<path fill="#4B4648" d="M89.7,110.8c-3.1,0-5.2-1.5-5.2-4.9c0-4.7,4.2-6.7,8.9-6.7c1.6,0,2.6,0.2,2.8,0.3c0-0.4,0-1,0-1.4
		c0-2.5-1.5-3.4-3.7-3.4c-2.4,0-4.4,1-5.1,1.4c-1-0.1-1.6-1.5-1.1-2.5c0.8-0.6,3.2-1.6,6.4-1.6c4.7,0,6.5,2,6.5,5.9
		c0,2-0.2,4.6-0.2,7.2c0,2.2,0.5,3.1,1.6,3.1c0.6,0,1.2-0.3,1.3-0.4c0.8,0.1,1.3,1.4,1,2.3c-0.4,0.4-1.4,0.9-3.2,0.9
		c-2,0-3.4-1-3.6-3.4l-0.2,0C95.3,108.8,93.3,110.8,89.7,110.8z M93.5,101.6c-3,0-5.8,1.2-5.8,4c0,1.6,0.9,2.5,2.8,2.5
		c2.1,0,3.8-1.4,4.6-2.6c0.8-1.2,1-2.6,1-3.5C95.9,101.8,95.2,101.6,93.5,101.6z"/>
	<path fill="#4B4648" d="M118.7,91.9c1.7,0,2.6,0.6,2.8,0.9c0.2,0.9-0.4,2.5-1.3,2.8c-0.2-0.2-0.8-0.6-2-0.6c-2.6,0-4.4,2.2-5,3.8
		c-0.6,1.5-0.8,2.9-0.8,4.8v3.8c0,0.2,0.1,0.3,0.3,0.3h3.8c0.4,0.1,0.6,0.7,0.6,1.3c0,0.6-0.2,1.2-0.6,1.3h-9.8
		c-0.4-0.1-0.6-0.7-0.6-1.3c0-0.6,0.2-1.2,0.6-1.3h2.3c0.2,0,0.3-0.1,0.3-0.3V95.7c0-0.5-0.2-0.7-0.6-0.7h-2.1
		c-0.2-0.1-0.5-0.6-0.5-1.2c0-0.6,0.2-1.1,0.5-1.3l5-0.3c0.6,0,0.8,0.1,0.8,0.8v3l0.2,0.1C113.5,93.9,115.5,91.9,118.7,91.9z"/>
	<path fill="#4B4648" d="M137.1,92.5c0.4,0.1,0.6,0.7,0.6,1.3c0,0.6-0.2,1.2-0.6,1.3h-6.4v8.2c0,2.4,0.4,4.8,3.7,4.8
		c1.6,0,2.9-0.5,3.3-0.7c0.3,0.1,0.7,0.4,0.9,1c0.2,0.6,0.1,1.2-0.1,1.5c-0.5,0.3-2.2,0.9-4.3,0.9c-5.6,0-6.6-3.2-6.6-7.6V95h-3
		c-0.4-0.1-0.6-0.7-0.6-1.3c0-0.6,0.2-1.2,0.6-1.3h3v-3.9c0.2-0.4,0.8-0.6,1.6-0.6c0.7,0,1.3,0.2,1.6,0.6v3.9H137.1z"/>
	<path fill="#4B4648" d="M150,108c2.8,0,4.9-1,5.5-1.3c0.4,0,0.9,0.4,1.1,1c0.2,0.6,0.2,1.3-0.1,1.5c-0.8,0.5-3,1.6-6.7,1.6
		c-5.6,0-9.7-3.2-9.7-9.3s4.3-9.6,8.9-9.6c5.4,0,7.6,4.2,7.6,8.1c0,0.4-0.1,0.5-1,0.7c-3,0.6-9.2,1.3-12.3,1.4
		C143.6,106,146.5,108,150,108z M152.4,98.7c0.6-0.1,0.8-0.2,0.8-0.5c0-1.6-1.5-3.7-4.2-3.7c-2.7,0-5.1,1.8-5.5,5.2
		C145.8,99.6,150.6,99.1,152.4,98.7z"/>
	<path fill="#4B4648" d="M172,91.9c1.7,0,2.6,0.6,2.8,0.9c0.2,0.9-0.4,2.5-1.3,2.8c-0.2-0.2-0.8-0.6-2-0.6c-2.6,0-4.4,2.2-5,3.8
		c-0.6,1.5-0.8,2.9-0.8,4.8v3.8c0,0.2,0.1,0.3,0.3,0.3h3.8c0.4,0.1,0.6,0.7,0.6,1.3c0,0.6-0.2,1.2-0.6,1.3h-9.8
		c-0.4-0.1-0.6-0.7-0.6-1.3c0-0.6,0.2-1.2,0.6-1.3h2.3c0.2,0,0.3-0.1,0.3-0.3V95.7c0-0.5-0.2-0.7-0.6-0.7h-2.1
		c-0.2-0.1-0.5-0.6-0.5-1.2c0-0.6,0.2-1.1,0.5-1.3l5-0.3c0.6,0,0.8,0.1,0.8,0.8v3l0.2,0.1C166.8,93.9,168.8,91.9,172,91.9z"/>
</g>
<g>
	<path fill="#4B4648" d="M34.3,144.2c0,0.2,0.1,0.3,0.3,0.3h9c0.4,0.2,0.5,0.8,0.5,1.4c0,0.6-0.2,1.2-0.5,1.4h-9
		c-0.3,0-0.3,0.1-0.3,0.3v9c0,0.2,0.1,0.3,0.3,0.3h3.5c0.4,0.1,0.6,0.7,0.6,1.4c0,0.6-0.2,1.3-0.6,1.4h-10c-0.4-0.1-0.6-0.8-0.6-1.4
		c0-0.6,0.2-1.2,0.6-1.4h2.6c0.2,0,0.3-0.1,0.3-0.3v-21.2c0-0.2-0.1-0.3-0.3-0.3h-2.6c-0.3-0.1-0.6-0.8-0.6-1.4
		c0-0.6,0.2-1.3,0.6-1.4h17.1c1.5,0,1.8,0.4,1.9,1.6c0.1,1.2,0.1,4.1,0,5.8c-0.6,0.7-2.4,0.7-3,0c0-1.4,0.1-2.5,0-3.5
		c0-0.8-0.3-1.1-1.2-1.1h-8.6V144.2z"/>
	<path fill="#4B4648" d="M56.4,157.5c2.8,0,4.9-1,5.5-1.3c0.4,0,0.9,0.4,1.1,1c0.2,0.6,0.2,1.3-0.1,1.5c-0.8,0.5-3,1.6-6.7,1.6
		c-5.6,0-9.7-3.2-9.7-9.3s4.3-9.6,8.9-9.6c5.4,0,7.6,4.2,7.6,8.1c0,0.4-0.1,0.5-1,0.7c-3,0.6-9.2,1.3-12.3,1.4
		C50,155.4,52.9,157.5,56.4,157.5z M58.8,148.2c0.6-0.1,0.8-0.2,0.8-0.5c0-1.6-1.5-3.7-4.2-3.7c-2.7,0-5.1,1.8-5.5,5.2
		C52.2,149.1,57,148.6,58.8,148.2z"/>
	<path fill="#4B4648" d="M76.6,144.9c-0.2-0.8-0.8-1.2-2.9-1.2c-2.6,0-4.3,0.9-4.3,2.5c0,1.7,1.1,2.1,4.8,3c3.4,0.7,6.1,1.6,6.1,5.1
		c0,4.2-3.8,6-8.2,6c-2.9,0-4.6-0.7-5.4-1.2c-0.8-0.6-1-1.4-1-2.7c0-1.2,0.2-2.3,0.3-3c0.3-0.3,0.8-0.4,1.4-0.4
		c0.7,0,1.3,0.3,1.5,0.7c-0.1,0.4-0.2,1.4-0.2,2.1c0,0.8,0.1,1.1,0.7,1.4c0.5,0.3,1.5,0.7,3,0.7c3,0,4.6-1.3,4.6-3.1
		c0-1.7-1.2-2.3-4.8-3c-3.4-0.8-6.1-1.6-6.1-5c0-3.7,3.6-5.4,8-5.4c3.4,0,4.7,0.7,5,1.4c0.4,0.8,0.4,3.2,0.2,3.9
		c-0.2,0.3-0.7,0.6-1.4,0.6c-0.7,0-1.2-0.3-1.5-0.6C76.7,146.4,76.7,145.4,76.6,144.9z"/>
	<path fill="#4B4648" d="M95.5,141.9c0.4,0.1,0.6,0.7,0.6,1.3c0,0.6-0.2,1.2-0.6,1.3h-6.4v8.2c0,2.4,0.4,4.8,3.7,4.8
		c1.6,0,2.9-0.5,3.3-0.7c0.3,0.1,0.7,0.4,0.9,1c0.2,0.6,0.1,1.2-0.1,1.5c-0.5,0.3-2.2,0.9-4.3,0.9c-5.6,0-6.6-3.2-6.6-7.6v-8.2h-3
		c-0.4-0.1-0.6-0.7-0.6-1.3c0-0.6,0.2-1.2,0.6-1.3h3v-3.9c0.2-0.4,0.8-0.6,1.6-0.6c0.7,0,1.3,0.2,1.6,0.6v3.9H95.5z"/>
	<path fill="#4B4648" d="M106.7,156.8c0,0.2,0.1,0.3,0.3,0.3h2.4c0.4,0.1,0.6,0.7,0.6,1.3c0,0.6-0.2,1.2-0.6,1.3h-8.4
		c-0.4-0.1-0.6-0.7-0.6-1.3c0-0.6,0.2-1.2,0.6-1.3h2.3c0.2,0,0.3-0.1,0.3-0.3v-11.6c0-0.5-0.1-0.7-0.6-0.7h-2.2
		c-0.3-0.1-0.5-0.7-0.5-1.3c0-0.6,0.2-1.1,0.5-1.2l5-0.3c0.6,0,0.8,0.2,0.8,0.8V156.8z M104.7,132.2c1.3,0,2.4,1.1,2.4,2.4
		c0,1.3-1.1,2.4-2.4,2.4c-1.3,0-2.4-1.1-2.4-2.4C102.3,133.3,103.3,132.2,104.7,132.2z"/>
	<path fill="#4B4648" d="M126.5,144.7c0.1-0.2,0-0.2-0.2-0.2h-2c-0.4-0.2-0.6-0.7-0.6-1.3c0-0.6,0.2-1.2,0.6-1.3h6.8
		c0.4,0.1,0.6,0.7,0.6,1.3c0,0.6-0.2,1.1-0.6,1.3h-1c-0.3,0-0.5,0.1-0.6,0.3l-7,14.5c-0.4,0.8-0.5,0.9-1.1,0.9h-0.9
		c-0.6,0-0.8-0.1-1.1-0.8l-6.5-14.5c-0.1-0.3-0.3-0.4-0.6-0.4h-1.4c-0.4-0.2-0.6-0.7-0.6-1.3c0-0.6,0.2-1.2,0.6-1.3h7.9
		c0.4,0.1,0.6,0.7,0.6,1.3c0,0.6-0.2,1.1-0.6,1.3h-2.4c-0.2,0-0.2,0.1-0.2,0.2l4.9,11.2h0.2L126.5,144.7z"/>
	<path fill="#4B4648" d="M138,160.3c-3.1,0-5.2-1.5-5.2-4.9c0-4.7,4.2-6.7,8.9-6.7c1.6,0,2.6,0.2,2.8,0.3c0-0.4,0-1,0-1.4
		c0-2.5-1.5-3.4-3.7-3.4c-2.4,0-4.4,1-5.1,1.4c-1-0.1-1.6-1.5-1.1-2.5c0.8-0.6,3.2-1.6,6.4-1.6c4.7,0,6.5,2,6.5,5.9
		c0,2-0.2,4.6-0.2,7.2c0,2.2,0.5,3.1,1.6,3.1c0.6,0,1.2-0.3,1.3-0.4c0.8,0.1,1.3,1.4,1,2.3c-0.4,0.4-1.4,0.9-3.2,0.9
		c-2,0-3.4-1-3.6-3.4l-0.2,0C143.6,158.3,141.6,160.3,138,160.3z M141.8,151.1c-3,0-5.8,1.2-5.8,4c0,1.6,0.9,2.5,2.8,2.5
		c2.1,0,3.8-1.4,4.6-2.6c0.8-1.2,1-2.6,1-3.5C144.2,151.3,143.4,151.1,141.8,151.1z"/>
	<path fill="#4B4648" d="M160.2,156.8c0,0.2,0.1,0.3,0.3,0.3h2.4c0.3,0.1,0.6,0.7,0.6,1.3c0,0.6-0.2,1.2-0.6,1.3h-8.4
		c-0.4-0.1-0.6-0.7-0.6-1.3c0-0.6,0.2-1.2,0.6-1.3h2.3c0.2,0,0.3-0.1,0.3-0.3v-23.2c0-0.5-0.1-0.6-0.6-0.6h-2.1
		c-0.2-0.1-0.5-0.7-0.5-1.3c0-0.6,0.2-1.1,0.5-1.3l5-0.3c0.6,0,0.8,0.1,0.8,0.8V156.8z"/>
</g>
</svg>
