<?xml version="1.0" encoding="utf-8"?>
<!-- Generator: Adobe Illustrator 18.1.1, SVG Export Plug-In . SVG Version: 6.00 Build 0)  -->
<svg version="1.1" id="Layer_1" xmlns="http://www.w3.org/2000/svg" xmlns:xlink="http://www.w3.org/1999/xlink" x="0px" y="0px"
	 viewBox="0 0 80 80" enable-background="new 0 0 80 80" xml:space="preserve">
<path id="twitter-4-icon" fill="#A5A5A5" d="M39.5,3.6c-19.9,0-36,16.1-36,36c0,19.9,16.1,36,36,36c19.9,0,36-16.1,36-36
	C75.5,19.7,59.4,3.6,39.5,3.6z M57.6,33.4c0.5,11.7-8.2,24.8-23.7,24.8c-4.7,0-9.1-1.4-12.8-3.8C25.5,55,30,53.8,33.5,51
	c-3.7-0.1-6.7-2.5-7.8-5.8c1.3,0.2,2.6,0.2,3.8-0.1c-4-0.8-6.8-4.4-6.7-8.3c1.1,0.6,2.4,1,3.8,1c-3.7-2.5-4.8-7.4-2.6-11.1
	c4.1,5.1,10.3,8.4,17.2,8.7c-1.2-5.2,2.7-10.3,8.1-10.3c2.4,0,4.6,1,6.1,2.6c1.9-0.4,3.7-1.1,5.3-2c-0.6,2-1.9,3.6-3.7,4.6
	c1.7-0.2,3.3-0.7,4.8-1.3C60.7,30.8,59.3,32.2,57.6,33.4z"/>
</svg>
