<?xml version="1.0" encoding="utf-8"?>
<!-- Generator: Adobe Illustrator 18.1.1, SVG Export Plug-In . SVG Version: 6.00 Build 0)  -->
<svg version="1.1" id="Layer_1" xmlns="http://www.w3.org/2000/svg" xmlns:xlink="http://www.w3.org/1999/xlink" x="0px" y="0px"
	 viewBox="0 0 94.9 63.8" enable-background="new 0 0 94.9 63.8" xml:space="preserve">
<path d="M89.9,12.3H5.1C2.3,12.3,0,10,0,7.2l0-2.2C0,2.3,2.3,0,5.1,0l84.8,0c2.8,0,5.1,2.3,5.1,5.1v2.2C94.9,10,92.7,12.3,89.9,12.3
	z"/>
<path d="M90.2,38.1H5.4c-2.8,0-5.1-2.3-5.1-5.1v-2.2c0-2.8,2.3-5.1,5.1-5.1h84.8c2.8,0,5.1,2.3,5.1,5.1V33
	C95.3,35.8,93,38.1,90.2,38.1z"/>
<path d="M90.6,63.8H5.7c-2.8,0-5.1-2.3-5.1-5.1v-2.2c0-2.8,2.3-5.1,5.1-5.1h84.8c2.8,0,5.1,2.3,5.1,5.1v2.2
	C95.6,61.6,93.4,63.8,90.6,63.8z"/>
</svg>
