<?xml version="1.0" encoding="utf-8"?>
<!-- Generator: Adobe Illustrator 18.1.1, SVG Export Plug-In . SVG Version: 6.00 Build 0)  -->
<svg version="1.1" id="Layer_1" xmlns="http://www.w3.org/2000/svg" xmlns:xlink="http://www.w3.org/1999/xlink" x="0px" y="0px"
	 viewBox="0 0 1000 1000" enable-background="new 0 0 1000 1000" xml:space="preserve">
<path fill="none" d="M378.5,356.3v-32.7c0,0-8.8-10.4-26.8-0.7l0.5,34.1L378.5,356.3z"/>
<polygon fill="none" points="352.8,484.9 353.5,576.3 382.4,571.2 382,480.8 "/>
<polygon fill="none" points="379.8,368.6 350.6,368.6 351.4,458.5 380.2,454.8 "/>
<polygon fill="none" points="421,369 392.2,369 392.9,453.4 421.4,450.2 "/>
<path fill="none" d="M420.3,328.7c0,0-8.8-16.7-28.8-2.8l0.4,31.5l28.5,0.5v-29.2H420.3z"/>
<polygon fill="none" points="394,479.4 394.8,570.7 423.2,566.1 422.8,475.2 "/>
<polygon fill="none" points="922.7,346.2 915.2,346.2 915.4,395.7 922.8,393.7 "/>
<polygon fill="none" points="915.8,410.3 915.9,460.5 923.4,457.7 923.3,408 "/>
<path fill="none" d="M922.4,339.5v-18c0,0-2.3-5.7-6.9-0.4l0.1,18.8L922.4,339.5z"/>
<polygon fill="none" points="926.4,407.2 926.6,457.5 933.9,454.9 933.8,404.9 "/>
<path fill="none" d="M933.2,324.3c0,0-2.3-9.2-7.4-1.5l0.1,17.4l7.3,0.3L933.2,324.3L933.2,324.3z"/>
<polygon fill="none" points="933.4,346.5 925.9,346.5 926.1,392.9 933.5,391.1 "/>
<g opacity="0.2">
	<path opacity="0.3" fill="#F7F8F9" enable-background="new    " d="M-769.5,293.9l-18.7,20.4c0,0,19.2,56.5,56.1,7.5l9.6-2.3
		c0,0,19.6,21.5,33.3,0.9c0,0,6.8-6.1,5-20.1l17.3-5.1c0,0,39.7,42.5,48.8-12.1l21-4.7c0,0,28.3,26.2,44.7-10.3l21.4-5.1
		c0,0,29.6,15.4,35.6-7.9l16.4-3.7c0,0,29.2,25.7,33.3-10.7l18.2-5.6c0,0,30.6,19.2,38.4,5.6l-16.8-18L-769.5,293.9z"/>
	<path opacity="0.3" fill="#F7F8F9" enable-background="new    " d="M-951,345c-11.8,13.1-29.8,25.7-30,25.8
		c-46.8,9.1-209.2-26-209.2-26c-4.3-0.6-9.3,15.2-9.3,15.2c-0.4,1.2,11.8,5.8,13,6.3c9.6,4,19.7,5.9,29.7,8.3
		c10.7,2.5,21.5,4.8,32.3,6.7c22.4,4.1,45,7,67.7,8.4c17,1.1,34.1,1.4,51.1,0.6c11-0.5,22-1.4,32.9-2.9c3.5-0.5,7-1.1,10.4-1.8
		c1.6-0.3,2.9-1.5,3.4-3.1l10.5-36.1C-948.2,344.9-950,343.9-951,345z"/>
	<path opacity="0.3" fill="#F7F8F9" enable-background="new    " d="M-933.1,34.2v297l93.8-20.6l-4.8-270.8
		C-883.3,20-933.1,34.2-933.1,34.2z M-894.7,54.3V87l-26.3,0.7l-0.5-34.1C-903.4,43.9-894.7,54.3-894.7,54.3z M-922.6,99.3h29.2
		l0.4,86.2l-28.8,3.7L-922.6,99.3z M-919.7,307l-0.7-91.3l29.2-4.2l0.4,90.4L-919.7,307z M-881.7,56.6c20.1-13.9,28.8,2.8,28.8,2.8
		v29.2l-28.5-0.5L-881.7,56.6z M-881,99.7h28.8l0.4,81.1l-28.5,3.2L-881,99.7z M-878.4,301.4l-0.7-91.3l28.8-4.2l0.4,90.9
		L-878.4,301.4z"/>
	<path opacity="0.3" fill="#F7F8F9" enable-background="new    " d="M-1187.5,15c0,0.6,0.6,1.1,1.2,1.1l3.3-0.2
		c1-0.1,1.4-1.2,0.7-1.9l-2.3-2.3c-0.5-0.5-0.4-1.3,0.1-1.7c7.2-6,50.1-32.4,230.9-16l146.1,12h0.1l472,2.7c1.2,0,1.6-1.7,0.5-2.2
		l-27.9-13c-0.1-0.1-0.3-0.1-0.4-0.1l-653.2-40.7c0,0-96.2-6.5-133.4,22.2c-0.1,0.1-0.1,0.1-0.2,0.1c-1.8,0.8-24.2,10.2-37.6,25.6
		c-0.2,0.2-0.3,0.5-0.3,0.8l0.2,8.1L-1187.5,15z"/>
	<path opacity="0.3" fill="#F7F8F9" enable-background="new    " d="M-609.7,67.9l34.4-1.2c0,0,6.3-11.8-1.4-24.3l-32.7-0.6
		c-2,0-3.5,1.9-3,3.8c1.4,5.2,3.3,14.3,0.8,19.6C-612.2,66.5-611.2,68-609.7,67.9z"/>
	<path opacity="0.3" fill="#F7F8F9" enable-background="new    " d="M-658.9,158.6l39.3-5.5c0,0-1.2-65.4-2.6-77h-38.1
		C-661.3,75.3-659.2,158.9-658.9,158.6z"/>
	<path opacity="0.3" fill="#F7F8F9" enable-background="new    " d="M-610.8,153.8l39.3-5.2c0,0-1.2-61.9-2.6-72.8h-38.1
		C-613.1,75-611.1,154.1-610.8,153.8z"/>
	<path opacity="0.3" fill="#F7F8F9" enable-background="new    " d="M-513.4,67.9l34.4-1.2c0,0,6.3-11.8-1.4-24.3l-32.7-0.6
		c-2,0-3.5,1.9-3,3.8c1.4,5.2,3.3,14.3,0.8,19.6C-515.9,66.5-514.8,68-513.4,67.9z"/>
	<path opacity="0.3" fill="#F7F8F9" enable-background="new    " d="M-562.6,150.8l39.3-4.9c0,0-1.2-58.6-2.6-69H-564
		C-565,76.1-562.9,151-562.6,150.8z"/>
	<path opacity="0.3" fill="#F7F8F9" enable-background="new    " d="M-561.5,67.9l34.4-1.2c0,0,6.3-11.8-1.4-24.3l-32.7-0.7
		c-2,0-3.5,1.9-3,3.8c1.4,5.2,3.3,14.3,0.8,19.6C-564.1,66.5-563,68-561.5,67.9z"/>
	<polygon opacity="0.3" fill="#F7F8F9" enable-background="new    " points="-645.5,241.3 -463.3,205.7 -466.8,153.6 -646.9,173.8 	
		"/>
	<path opacity="0.3" fill="#F7F8F9" enable-background="new    " d="M-657.8,67.9l34.4-1.2c0,0,6.3-11.8-1.4-24.3l-32.7-0.6
		c-2,0-3.5,1.9-3,3.8c1.4,5.2,3.3,14.3,0.8,19.6C-660.4,66.5-659.3,68-657.8,67.9z"/>
	<path opacity="0.3" fill="#F7F8F9" enable-background="new    " d="M-762.5,74.4h-42.4c-1-1,1.3,100,1.6,99.6l43.7-6.6
		C-759.5,167.3-760.8,88.4-762.5,74.4z"/>
	<path opacity="0.3" fill="#F7F8F9" enable-background="new    " d="M-802.3,67.9l34.4-1.2c0,0,6.3-11.8-1.4-24.3l-32.7-0.6
		c-2,0-3.5,1.9-3,3.8c1.4,5.2,3.3,14.3,0.8,19.6C-804.8,66.5-803.8,68-802.3,67.9z"/>
	<path opacity="0.3" fill="#F7F8F9" enable-background="new    " d="M-753.8,41.7c-2,0-3.5,1.9-3,3.8c1.4,5.2,3.3,14.3,0.8,19.6
		c-0.6,1.3,0.4,2.9,1.9,2.8l34.4-1.2c0,0,6.3-11.8-1.4-24.3L-753.8,41.7z"/>
	<path opacity="0.3" fill="#F7F8F9" enable-background="new    " d="M-753.7,168.2l40-6.2c0,0-1.2-73.7-2.7-86.8h-38.8
		C-756,74.3-754,168.5-753.7,168.2z"/>
	<path opacity="0.3" fill="#F7F8F9" enable-background="new    " d="M-706,67.9l34.4-1.2c0,0,6.3-11.8-1.4-24.3l-32.7-0.6
		c-2,0-3.5,1.9-3,3.8c1.4,5.2,3.3,14.3,0.8,19.6C-708.5,66.5-707.5,68-706,67.9z"/>
	<path opacity="0.3" fill="#F7F8F9" enable-background="new    " d="M-707.1,162.3l39.3-5.8c0,0-1.2-69.1-2.6-81.4h-38.1
		C-709.4,74.2-707.4,162.6-707.1,162.3z"/>
	<path opacity="0.3" fill="#F7F8F9" enable-background="new    " d="M-1138.6,174.6c0,0-1.4-135.4-2.3-139.5c-0.9-4.2-26.4,6-26.4,6
		v128.4C-1162.7,181.1-1138.6,174.6-1138.6,174.6z"/>
	<path opacity="0.3" fill="#F7F8F9" enable-background="new    " d="M-1062.6,180.6l-1.4-152.1c-27.4-7-63.5,1.4-63.5,1.4l0.9,147.4
		C-1124.7,186.7-1062.6,180.6-1062.6,180.6z"/>
	<path opacity="0.3" fill="#F7F8F9" enable-background="new    " d="M-984.2,180.2V36c-16.2-9.7-65.8-8.3-65.8-8.3v151.6
		C-1042.6,185.7-984.2,180.2-984.2,180.2z"/>
	<circle opacity="0.3" fill="#F7F8F9" enable-background="new    " cx="-1093.9" cy="263.6" r="18.1"/>
	<path opacity="0.3" fill="#F7F8F9" enable-background="new    " d="M-1175.2,190.6l-0.7,10.4c54.2,30.6,201.7,8.3,201.7,8.3V194
		C-1080.7,217-1175.2,190.6-1175.2,190.6z"/>
	<path opacity="0.3" fill="#F7F8F9" enable-background="new    " d="M-382.8,238l1.9-0.3l-2.9,0.2C-383.4,238-383.1,238.1-382.8,238
		z"/>
	<path opacity="0.3" fill="#F7F8F9" enable-background="new    " d="M-320.4,24.4l-1.8-1.2c-0.5-0.3-1.1-0.5-1.6-0.5L-808,19.9
		c-0.1,0-0.1,0-0.2,0L-954.8,7.8c-184.8-16.8-220.6,12.7-220.9,13c0.1-0.1,0.2-0.2,0.2-0.2c-1.8-1.8-5-0.6-5,2l-2.7,263.2
		c0,0.4-0.1,0.7-0.2,1.1c-1.5,3.5-10.1,24.6-11.7,38.7c-0.8,6.9,0.1,12.2,4.4,12.7c0,0,159.7,32.3,206.4,23.2c0.2,0,0.4-0.1,0.6-0.2
		c2.5-1.1,20-9.1,30.9-23.9c6.1-8.1,10.2-18.3,8.6-30.6c0-0.1,0-0.2,0-0.3L-947,26.3c0-1.4,1-2.7,2.4-2.9c11-1.9,57.6-8.3,109.5,6.3
		c1.2,0.4,2.1,1.5,2.1,2.8l3.7,283.9c0,0.3,0.1,0.6,0.1,0.9c0.9,2.7,6,16.6,15.2,15.6c0.8-0.1,1.5-0.5,2-1.1l3.7-4.6l-9.9-296
		l446.4-1.4l0.2,184.3v0.4c0.4-0.6,1-1,1.6-1.2l6-1.7V36c0,0,16-11.9,28.6,0.9l2.3,166.2l6.4-1.8c1.3-0.4,2.1-1.5,2.1-2.8
		l-0.2-165.7c0-1.4,1-2.6,2.4-2.9c0.4-0.1,0.8-0.2,1.2-0.3C-318.9,28.9-318.4,25.8-320.4,24.4z M-1176.6,288l1.4-252.5
		c0,0,50.8-33.4,201-9l2.8,285.8C-971.5,312.3-1159.9,300.5-1176.6,288z"/>
	<path opacity="0.3" fill="#F7F8F9" enable-background="new    " d="M-417.1,67.9l34.4-1.2c0,0,6.3-11.8-1.4-24.3l-32.7-0.6
		c-2,0-3.5,1.9-3,3.8c1.4,5.2,3.3,14.3,0.8,19.6C-419.6,66.5-418.5,68-417.1,67.9z"/>
	<path opacity="0.3" fill="#F7F8F9" enable-background="new    " d="M-465.2,67.9l34.4-1.2c0,0,6.3-11.8-1.4-24.3l-32.7-0.6
		c-2,0-3.5,1.9-3,3.8c1.4,5.2,3.3,14.3,0.8,19.6C-467.8,66.5-466.7,68-465.2,67.9z"/>
	<path opacity="0.3" fill="#F7F8F9" enable-background="new    " d="M-466.3,142l39.3-4.3c0,0-1.2-51.1-2.6-60.2h-38.1
		C-468.6,76.8-466.6,142.2-466.3,142z"/>
	<path opacity="0.3" fill="#F7F8F9" enable-background="new    " d="M-419.6,76.8c-0.9-0.6,1.2,60.8,1.5,60.6l39.3-4
		c0,0-1.2-48-2.6-56.6H-419.6z"/>
	<path opacity="0.3" fill="#F7F8F9" enable-background="new    " d="M-514.5,146.4l39.3-4.7c0,0-1.2-55.5-2.6-65.3h-38.1
		C-516.8,75.7-514.8,146.7-514.5,146.4z"/>
	<path opacity="0.3" fill="#F7F8F9" enable-background="new    " d="M-406.3,214.9c0.6,0.1,1.1,0.4,1.5,0.9l19.4,21.3
		c0.3,0.3,0.6,0.5,0.9,0.7l-21.2-22.9H-406.3z"/>
	<path opacity="0.3" fill="#F7F8F9" enable-background="new    " d="M-359.3,40v169.7l22.3-7.8l-1.8-160.2
		C-347.8,30.9-359.3,40-359.3,40z M-350.5,53.8v17.9l-6.1,0.4l-0.1-18.6C-352.5,48.1-350.5,53.8-350.5,53.8z M-356.9,78.3h6.7
		l0.1,47.1l-6.7,2L-356.9,78.3z M-356.2,191.8l-0.2-49.9l6.7-2.3l0.1,49.4L-356.2,191.8z M-347.5,55c4.6-7.6,6.7,1.5,6.7,1.5v16
		l-6.6-0.3L-347.5,55z M-347.3,78.6h6.7l0.1,44.3l-6.6,1.8L-347.3,78.6z M-346.7,188.8l-0.2-49.9l6.7-2.3l0.1,49.7L-346.7,188.8z"/>
</g>
<g>
	<path opacity="0.3" fill="#F7F8F9" enable-background="new    " d="M-767.7,651l-18.7,20.4c0,0,19.2,56.5,56.1,7.5l9.6-2.3
		c0,0,19.6,21.5,33.3,0.9c0,0,6.8-6.1,5-20.1l17.3-5.1c0,0,39.7,42.5,48.8-12.1l21-4.7c0,0,28.3,26.2,44.7-10.3l21.4-5.1
		c0,0,29.6,15.4,35.6-7.9l16.4-3.7c0,0,29.2,25.7,33.3-10.7l18.2-5.6c0,0,30.6,19.2,38.4,5.6l-16.8-18L-767.7,651z"/>
	<path opacity="0.3" fill="#F7F8F9" enable-background="new    " d="M-949.2,702.1c-11.8,13.1-29.8,25.7-30,25.8
		c-46.8,9.1-209.2-26-209.2-26c-4.3-0.6-9.3,15.2-9.3,15.2c-0.4,1.2,11.8,5.8,13,6.3c9.6,4,19.7,5.9,29.7,8.3
		c10.7,2.5,21.5,4.8,32.3,6.7c22.4,4.1,45,7,67.7,8.4c17,1.1,34.1,1.4,51.1,0.6c11-0.5,22-1.4,32.9-2.9c3.5-0.5,7-1.1,10.4-1.8
		c1.6-0.3,2.9-1.5,3.4-3.1l10.5-36.1C-946.4,702.1-948.2,701-949.2,702.1z"/>
	<path opacity="0.3" fill="#F7F8F9" enable-background="new    " d="M-931.3,391.4v297l93.8-20.6l-4.8-270.8
		C-881.5,377.1-931.3,391.4-931.3,391.4z M-892.9,411.4v32.7l-26.3,0.7l-0.5-34.1C-901.6,401-892.9,411.4-892.9,411.4z
		 M-920.8,456.4h29.2l0.4,86.2l-28.8,3.7L-920.8,456.4z M-917.8,664.1l-0.8-91.3l29.2-4.2l0.4,90.4L-917.8,664.1z M-879.9,413.8
		c20.1-13.9,28.8,2.8,28.8,2.8v29.2l-28.5-0.5L-879.9,413.8z M-879.2,456.9h28.8l0.4,81.1l-28.5,3.2L-879.2,456.9z M-876.6,658.5
		l-0.7-91.3l28.8-4.2l0.4,90.9L-876.6,658.5z"/>
	<path opacity="0.3" fill="#F7F8F9" enable-background="new    " d="M-1185.7,372.1c0,0.6,0.6,1.1,1.2,1.1l3.3-0.2
		c1-0.1,1.4-1.2,0.7-1.9l-2.3-2.3c-0.5-0.5-0.4-1.3,0.1-1.7c7.2-6,50.1-32.4,230.9-16l146.1,12h0.1l472,2.7c1.2,0,1.6-1.7,0.5-2.2
		l-27.9-13c-0.1-0.1-0.3-0.1-0.4-0.1l-653.2-40.7c0,0-96.2-6.5-133.4,22.2c-0.1,0.1-0.1,0.1-0.2,0.1c-1.8,0.8-24.2,10.2-37.6,25.6
		c-0.2,0.2-0.3,0.5-0.3,0.8l0.2,8.1L-1185.7,372.1z"/>
	<path opacity="0.3" fill="#F7F8F9" enable-background="new    " d="M-607.9,425.1l34.4-1.2c0,0,6.3-11.8-1.4-24.3l-32.7-0.6
		c-2,0-3.5,1.9-3,3.8c1.4,5.2,3.3,14.3,0.8,19.6C-610.4,423.6-609.3,425.1-607.9,425.1z"/>
	<path opacity="0.3" fill="#F7F8F9" enable-background="new    " d="M-657.1,515.8l39.3-5.5c0,0-1.2-65.4-2.6-77h-38.2
		C-659.5,432.4-657.4,516.1-657.1,515.8z"/>
	<path opacity="0.3" fill="#F7F8F9" enable-background="new    " d="M-609,510.9l39.3-5.2c0,0-1.2-61.9-2.6-72.8h-38.1
		C-611.3,432.1-609.3,511.2-609,510.9z"/>
	<path opacity="0.3" fill="#F7F8F9" enable-background="new    " d="M-511.5,425.1l34.4-1.2c0,0,6.3-11.8-1.4-24.3l-32.7-0.6
		c-2,0-3.5,1.9-3,3.8c1.4,5.2,3.3,14.3,0.8,19.6C-514.1,423.6-513,425.1-511.5,425.1z"/>
	<path opacity="0.3" fill="#F7F8F9" enable-background="new    " d="M-560.8,507.9l39.3-4.9c0,0-1.2-58.6-2.6-69h-38.1
		C-563.1,433.2-561.1,508.2-560.8,507.9z"/>
	<path opacity="0.3" fill="#F7F8F9" enable-background="new    " d="M-559.7,425.1l34.4-1.2c0,0,6.3-11.8-1.4-24.3l-32.7-0.6
		c-2,0-3.5,1.9-3,3.8c1.4,5.2,3.3,14.3,0.8,19.6C-562.2,423.6-561.2,425.1-559.7,425.1z"/>
	<polygon opacity="0.3" fill="#F7F8F9" enable-background="new    " points="-643.7,598.4 -461.5,562.9 -465,510.7 -645.1,531 	"/>
	<path opacity="0.3" fill="#F7F8F9" enable-background="new    " d="M-656,425.1l34.4-1.2c0,0,6.3-11.8-1.4-24.3l-32.7-0.6
		c-2,0-3.5,1.9-3,3.8c1.4,5.2,3.3,14.3,0.8,19.6C-658.6,423.6-657.5,425.1-656,425.1z"/>
	<path opacity="0.3" fill="#F7F8F9" enable-background="new    " d="M-760.6,431.5H-803c-1-1,1.3,100,1.6,99.6l43.7-6.6
		C-757.7,524.5-759,445.5-760.6,431.5z"/>
	<path opacity="0.3" fill="#F7F8F9" enable-background="new    " d="M-800.5,425.1l34.4-1.2c0,0,6.3-11.8-1.4-24.3l-32.7-0.6
		c-2,0-3.5,1.9-3,3.8c1.4,5.2,3.3,14.3,0.8,19.6C-803,423.6-802,425.1-800.5,425.1z"/>
	<path opacity="0.3" fill="#F7F8F9" enable-background="new    " d="M-752,398.9c-2,0-3.5,1.9-3,3.8c1.4,5.2,3.3,14.3,0.8,19.6
		c-0.6,1.3,0.4,2.9,1.9,2.8l34.4-1.2c0,0,6.3-11.8-1.4-24.3L-752,398.9z"/>
	<path opacity="0.3" fill="#F7F8F9" enable-background="new    " d="M-751.8,525.3l40-6.2c0,0-1.2-73.7-2.7-86.8h-38.8
		C-754.2,431.4-752.1,525.7-751.8,525.3z"/>
	<path opacity="0.3" fill="#F7F8F9" enable-background="new    " d="M-704.2,425.1l34.4-1.2c0,0,6.3-11.8-1.4-24.3l-32.7-0.6
		c-2,0-3.5,1.9-3,3.8c1.4,5.2,3.3,14.3,0.8,19.6C-706.7,423.6-705.6,425.1-704.2,425.1z"/>
	<path opacity="0.3" fill="#F7F8F9" enable-background="new    " d="M-705.3,519.4l39.3-5.8c0,0-1.2-69.1-2.6-81.4h-38.1
		C-707.6,431.3-705.6,519.7-705.3,519.4z"/>
	<path opacity="0.3" fill="#F7F8F9" enable-background="new    " d="M-1136.8,531.8c0,0-1.4-135.4-2.3-139.5c-0.9-4.2-26.4,6-26.4,6
		v128.4C-1160.9,538.3-1136.8,531.8-1136.8,531.8z"/>
	<path opacity="0.3" fill="#F7F8F9" enable-background="new    " d="M-1060.8,537.8l-1.4-152.1c-27.4-7-63.5,1.4-63.5,1.4l0.9,147.4
		C-1122.9,543.8-1060.8,537.8-1060.8,537.8z"/>
	<path opacity="0.3" fill="#F7F8F9" enable-background="new    " d="M-982.4,537.3V393.2c-16.2-9.7-65.8-8.3-65.8-8.3v151.6
		C-1040.8,542.9-982.4,537.3-982.4,537.3z"/>
	<circle opacity="0.3" fill="#F7F8F9" enable-background="new    " cx="-1092.1" cy="620.8" r="18.1"/>
	<path opacity="0.3" fill="#F7F8F9" enable-background="new    " d="M-1173.4,547.8l-0.7,10.4c54.2,30.6,201.7,8.3,201.7,8.3v-15.3
		C-1078.8,574.2-1173.4,547.8-1173.4,547.8z"/>
	<path opacity="0.3" fill="#F7F8F9" enable-background="new    " d="M-381,595.2l1.9-0.3l-2.9,0.2
		C-381.6,595.2-381.3,595.2-381,595.2z"/>
	<path opacity="0.3" fill="#F7F8F9" enable-background="new    " d="M-318.6,381.5l-1.8-1.2c-0.5-0.3-1.1-0.5-1.6-0.5l-484.2-2.8
		c-0.1,0-0.1,0-0.2,0L-953,364.9c-184.8-16.8-220.6,12.7-220.9,13c0.1-0.1,0.2-0.2,0.2-0.2c-1.8-1.8-5-0.6-5,2l-2.7,263.2
		c0,0.4-0.1,0.7-0.2,1.1c-1.5,3.5-10.1,24.6-11.7,38.7c-0.8,6.9,0.1,12.2,4.4,12.7c0,0,159.7,32.3,206.4,23.2c0.2,0,0.4-0.1,0.6-0.2
		c2.5-1.1,20-9.1,30.9-23.9c6.1-8.1,10.2-18.3,8.6-30.6c0-0.1,0-0.2,0-0.3l-2.8-280.2c0-1.4,1-2.7,2.4-2.9
		c11-1.9,57.6-8.3,109.5,6.3c1.2,0.4,2.1,1.5,2.1,2.8l3.7,283.9c0,0.3,0.1,0.6,0.1,0.9c0.9,2.7,6,16.6,15.2,15.6
		c0.8-0.1,1.5-0.5,2-1.1l3.7-4.6l-10.2-296.1l446.4-1.4l0.2,184.3v0.4c0.4-0.6,1-1,1.6-1.2l6-1.7V393.1c0,0,16-11.9,28.6,0.9
		l2.3,166.2l6.4-1.8c1.3-0.4,2.1-1.5,2.1-2.8l-0.2-165.7c0-1.4,1-2.6,2.4-2.9c0.4-0.1,0.8-0.2,1.2-0.3
		C-317.1,386-316.6,382.9-318.6,381.5z M-1174.8,645.1l1.4-252.4c0,0,50.8-33.4,201-9l2.8,285.8
		C-969.7,669.5-1158.1,657.6-1174.8,645.1z"/>
	<path opacity="0.3" fill="#F7F8F9" enable-background="new    " d="M-415.2,425.1l34.4-1.2c0,0,6.3-11.8-1.4-24.3l-32.7-0.6
		c-2,0-3.5,1.9-3,3.8c1.4,5.2,3.3,14.3,0.8,19.6C-417.8,423.6-416.7,425.1-415.2,425.1z"/>
	<path opacity="0.3" fill="#F7F8F9" enable-background="new    " d="M-463.4,425.1l34.4-1.2c0,0,6.3-11.8-1.4-24.3l-32.7-0.6
		c-2,0-3.5,1.9-3,3.8c1.4,5.2,3.3,14.3,0.8,19.6C-465.9,423.6-464.9,425.1-463.4,425.1z"/>
	<path opacity="0.3" fill="#F7F8F9" enable-background="new    " d="M-464.5,499.1l39.3-4.3c0,0-1.2-51.1-2.6-60.2h-38.1
		C-466.8,434-464.8,499.4-464.5,499.1z"/>
	<path opacity="0.3" fill="#F7F8F9" enable-background="new    " d="M-417.8,433.9c-0.9-0.6,1.2,60.8,1.5,60.6l39.3-4
		c0,0-1.2-48-2.6-56.6H-417.8z"/>
	<path opacity="0.3" fill="#F7F8F9" enable-background="new    " d="M-512.7,503.6l39.3-4.7c0,0-1.2-55.5-2.6-65.3h-38.1
		C-515,432.9-512.9,503.8-512.7,503.6z"/>
	<path opacity="0.3" fill="#F7F8F9" enable-background="new    " d="M-404.4,572.1c0.6,0.1,1.1,0.4,1.5,0.9l19.4,21.3
		c0.3,0.3,0.6,0.5,0.9,0.7l-21.2-22.9H-404.4z"/>
	<path opacity="0.3" fill="#F7F8F9" enable-background="new    " d="M-357.5,397.2v169.7l22.3-7.8l-1.8-160.2
		C-346,388-357.5,397.2-357.5,397.2z M-348.7,410.9v17.9l-6.1,0.4l-0.1-18.6C-350.7,405.2-348.7,410.9-348.7,410.9z M-355.1,435.5
		h6.7l0.1,47.1l-6.7,2L-355.1,435.5z M-354.4,549l-0.2-49.9l6.7-2.3l0.1,49.4L-354.4,549z M-345.7,412.2c4.6-7.6,6.7,1.5,6.7,1.5v16
		l-6.6-0.3L-345.7,412.2z M-345.5,435.7h6.7l0.1,44.3l-6.6,1.8L-345.5,435.7z M-344.9,545.9l-0.2-49.9l6.7-2.3l0.1,49.7
		L-344.9,545.9z"/>
</g>
<g opacity="0.3">
	<path opacity="0.3" fill="#F7F8F9" enable-background="new    " d="M121.2,502.2c0,0-1.4-135.4-2.3-139.5c-0.9-4.2-26.4,6-26.4,6
		v128.4C97.1,508.7,121.2,502.2,121.2,502.2z"/>
	<g>
		<path fill="none" d="M365.1,414.6v-32.7c0,0-8.8-10.4-26.8-0.7l0.5,34.1L365.1,414.6z"/>
		<polygon fill="none" points="339.4,543.2 340.1,634.6 369,629.5 368.6,539.1 		"/>
		<polygon fill="none" points="366.4,426.9 337.2,426.9 338,516.8 366.8,513.1 		"/>
		<polygon fill="none" points="407.6,427.3 378.8,427.3 379.5,511.7 408,508.5 		"/>
		<path fill="none" d="M406.9,387c0,0-8.8-16.7-28.8-2.8l0.4,31.5l28.5,0.5V387H406.9z"/>
		<polygon fill="none" points="380.6,537.7 381.4,629 409.8,624.4 409.4,533.5 		"/>
		<polygon fill="none" points="909.3,404.5 901.8,404.5 902,454 909.4,452 		"/>
		<polygon fill="none" points="902.4,468.6 902.5,518.8 910,516 909.9,466.3 		"/>
		<path fill="none" d="M909,397.8v-18c0,0-2.3-5.7-6.9-0.4l0.1,18.8L909,397.8z"/>
		<polygon fill="none" points="913,465.5 913.2,515.8 920.5,513.2 920.4,463.2 		"/>
		<path fill="none" d="M919.8,382.6c0,0-2.3-9.2-7.4-1.5l0.1,17.4l7.3,0.3L919.8,382.6L919.8,382.6z"/>
		<polygon fill="none" points="920,404.8 912.5,404.8 912.7,451.2 920.1,449.4 		"/>
		<path opacity="0.3" fill="#F7F8F9" enable-background="new    " d="M310.3,675.3c-4.5,5.1-9.2,10.4-14.3,15
			c-2.6,2.3-5.3,4.4-8.1,6.4c-3,2.1-5.8,4.6-9,6.4c-2.9,1.7-6,1.6-9.3,1.5c-54.7-1.4-108.5-8.1-162.5-17.3
			c-13.4-2.3-26.8-4.6-40.2-7.2c-3.6-0.4-6.1,7.3-7.1,9.7c-4.5,11.3,19.6,14.9,27.2,17.2c26.7,8.2,54.5,12.3,82.2,15
			c22.2,2.2,44.4,5,66.7,5.5c19.1,0.4,45.6,1.9,61.8-9.8c7.9-5.7,9.3-20,11.7-28.8c1-3.8,2.1-7.7,3.1-11.5c0.1-0.3,0.1-0.5,0.2-0.8
			C313.1,675.2,311.3,674.2,310.3,675.3z"/>
		<path opacity="0.3" fill="#F7F8F9" enable-background="new    " d="M326.7,361.8v297l93.8-20.6l-4.8-270.8
			C376.5,347.6,326.7,361.8,326.7,361.8z M365.1,381.9v32.7l-26.3,0.7l-0.5-34.1C356.4,371.5,365.1,381.9,365.1,381.9z M337.2,426.9
			h29.2l0.4,86.2l-28.8,3.7L337.2,426.9z M340.1,634.6l-0.7-91.3l29.2-4.2l0.4,90.4L340.1,634.6z M378.1,384.2
			c20.1-13.9,28.8,2.8,28.8,2.8v29.2l-28.5-0.5L378.1,384.2z M378.8,427.3h28.8l0.4,81.1l-28.5,3.2L378.8,427.3z M381.4,629
			l-0.7-91.3l28.8-4.2l0.4,90.9L381.4,629z"/>
		<path opacity="0.3" fill="#F7F8F9" enable-background="new    " d="M72.3,342.6c0,0.6,0.6,1.1,1.2,1.1l3.3-0.2
			c1-0.1,1.4-1.2,0.7-1.9l-2.3-2.3c-0.5-0.5-0.4-1.3,0.1-1.7c7.2-6,50.1-32.4,230.9-16l146.1,12h0.1l472,2.7c1.2,0,1.6-1.7,0.5-2.2
			l-27.9-13c-0.1-0.1-0.3-0.1-0.4-0.1l-653.2-40.7c0,0-96.2-6.5-133.4,22.2c-0.1,0.1-0.1,0.1-0.2,0.1c-1.8,0.8-24.2,10.2-37.6,25.6
			c-0.2,0.2-0.3,0.5-0.3,0.8l0.2,8.1L72.3,342.6z"/>
		<path opacity="0.3" fill="#F7F8F9" enable-background="new    " d="M650.1,395.5l34.4-1.2c0,0,6.3-11.8-1.4-24.3l-32.7-0.6
			c-2,0-3.5,1.9-3,3.8c1.4,5.2,3.3,14.3,0.8,19.6C647.6,394.1,648.6,395.6,650.1,395.5z"/>
		<path opacity="0.3" fill="#F7F8F9" enable-background="new    " d="M600.9,486.2l39.3-5.5c0,0-1.2-65.4-2.6-77h-38.1
			C598.5,402.9,600.6,486.5,600.9,486.2z"/>
		<path opacity="0.3" fill="#F7F8F9" enable-background="new    " d="M649,481.4l39.3-5.2c0,0-1.2-61.9-2.6-72.8h-38.1
			C646.7,402.6,648.7,481.7,649,481.4z"/>
		<path opacity="0.3" fill="#F7F8F9" enable-background="new    " d="M746.4,395.5l34.4-1.2c0,0,6.3-11.8-1.4-24.3l-32.7-0.6
			c-2,0-3.5,1.9-3,3.8c1.4,5.2,3.3,14.3,0.8,19.6C743.9,394.1,745,395.6,746.4,395.5z"/>
		<path opacity="0.3" fill="#F7F8F9" enable-background="new    " d="M697.2,475.4l39.3-4.9c0,0-1.2-58.6-2.6-69h-38.1
			C694.8,400.7,696.9,475.6,697.2,475.4z"/>
		<path opacity="0.3" fill="#F7F8F9" enable-background="new    " d="M698.3,395.5l34.4-1.2c0,0,6.3-11.8-1.4-24.3l-32.7-0.7
			c-2,0-3.5,1.9-3,3.8c1.4,5.2,3.3,14.3,0.8,19.6C695.7,394.1,696.8,395.6,698.3,395.5z"/>
		<polygon opacity="0.3" fill="#F7F8F9" enable-background="new    " points="614.3,568.9 796.5,533.3 793,481.2 612.9,501.4 		"/>
		<path opacity="0.3" fill="#F7F8F9" enable-background="new    " d="M602,395.5l34.4-1.2c0,0,6.3-11.8-1.4-24.3l-32.7-0.6
			c-2,0-3.5,1.9-3,3.8c1.4,5.2,3.3,14.3,0.8,19.6C599.4,394.1,600.5,395.6,602,395.5z"/>
		<path opacity="0.3" fill="#F7F8F9" enable-background="new    " d="M497.3,402h-42.4c-1-1,1.3,103.5,1.6,103.1l43.7-6.8
			C500.3,498.2,499,416.5,497.3,402z"/>
		<path opacity="0.3" fill="#F7F8F9" enable-background="new    " d="M457.5,395.5l34.4-1.2c0,0,6.3-11.8-1.4-24.3l-32.7-0.6
			c-2,0-3.5,1.9-3,3.8c1.4,5.2,3.3,14.3,0.8,19.6C455,394.1,456,395.6,457.5,395.5z"/>
		<path opacity="0.3" fill="#F7F8F9" enable-background="new    " d="M507,369.3c-2,0-3.5,1.9-3,3.8c1.4,5.2,3.3,14.3,0.8,19.6
			c-0.6,1.3,0.4,2.9,1.9,2.8l34.4-1.2c0,0,6.3-11.8-1.4-24.3L507,369.3z"/>
		<path opacity="0.3" fill="#F7F8F9" enable-background="new    " d="M507.1,497.8l40-6.3c0,0-1.2-75.3-2.7-88.7h-38.8
			C504.8,401.9,506.8,498.1,507.1,497.8z"/>
		<path opacity="0.3" fill="#F7F8F9" enable-background="new    " d="M554.8,395.5l34.4-1.2c0,0,6.3-11.8-1.4-24.3l-32.7-0.6
			c-2,0-3.5,1.9-3,3.8c1.4,5.2,3.3,14.3,0.8,19.6C552.3,394.1,553.3,395.6,554.8,395.5z"/>
		<path opacity="0.3" fill="#F7F8F9" enable-background="new    " d="M553.7,492l39.3-5.9c0,0-1.2-70.8-2.6-83.4h-38.1
			C551.4,401.8,553.4,492.3,553.7,492z"/>
		<path opacity="0.3" fill="#F7F8F9" enable-background="new    " d="M197.2,508.2l-1.4-152.1c-27.4-7-63.5,1.4-63.5,1.4l0.9,147.4
			C135.1,514.3,197.2,508.2,197.2,508.2z"/>
		<path opacity="0.3" fill="#F7F8F9" enable-background="new    " d="M275.6,507.8V363.6c-16.2-9.7-65.8-8.3-65.8-8.3v151.6
			C217.2,513.3,275.6,507.8,275.6,507.8z"/>
		<circle opacity="0.3" fill="#F7F8F9" enable-background="new    " cx="165.9" cy="591.2" r="18.1"/>
		<path opacity="0.3" fill="#F7F8F9" enable-background="new    " d="M939.4,352l-1.8-1.2c-0.5-0.3-1.1-0.5-1.6-0.5l-484.2-2.8
			c-0.1,0-0.1,0-0.2,0L305,335.4c-184.8-16.8-220.6,12.7-220.9,13c0.1-0.1,0.2-0.2,0.2-0.2c-1.8-1.8-5-0.6-5,2l-2.7,263.2
			c0,0.4-0.1,0.7-0.2,1.1c-1.5,3.5-10.1,24.6-11.7,38.7c-0.8,6.9,0.1,12.2,4.4,12.7c0,0,159.7,32.3,206.4,23.2
			c0.2,0,0.4-0.1,0.6-0.2c2.5-1.1,20-9.1,30.9-23.9c6.1-8.1,10.2-18.3,8.6-30.6c0-0.1,0-0.2,0-0.3l-2.8-280.2c0-1.4,1-2.7,2.4-2.9
			c11-1.9,57.6-8.3,109.5,6.3c1.2,0.4,2.1,1.5,2.1,2.8l3.7,283.9c0,0.3,0.1,0.6,0.1,0.9c0.9,2.7,6,16.6,15.2,15.6
			c0.8-0.1,1.5-0.5,2-1.1l3.7-4.6l-9.9-296l446.4-1.4l0.2,184.3v0.4c0.4-0.6,1-1,1.6-1.2l6-1.7V363.6c0,0,16-11.9,28.6,0.9
			l2.3,166.2l6.4-1.8c1.3-0.4,2.1-1.5,2.1-2.8L935,360.4c0-1.4,1-2.6,2.4-2.9c0.4-0.1,0.8-0.2,1.2-0.3
			C940.9,356.5,941.4,353.4,939.4,352z M84.6,363.1c0,0,50.8-33.4,201-9l1.8,182.8l-0.2-15.3c-105.2,22.5-199.6-2.3-203.5-3.3
			L84.6,363.1z M83.2,615.6l0.5-87c54.8,30.5,203.7,8.3,203.7,8.3l1,103C288.3,639.9,99.9,628.1,83.2,615.6z"/>
		<path opacity="0.3" fill="#F7F8F9" enable-background="new    " d="M842.7,395.5l34.4-1.2c0,0,6.3-11.8-1.4-24.3l-32.7-0.6
			c-2,0-3.5,1.9-3,3.8c1.4,5.2,3.3,14.3,0.8,19.6C840.2,394.1,841.3,395.6,842.7,395.5z"/>
		<path opacity="0.3" fill="#F7F8F9" enable-background="new    " d="M794.6,395.5l34.4-1.2c0,0,6.3-11.8-1.4-24.3l-32.7-0.6
			c-2,0-3.5,1.9-3,3.8c1.4,5.2,3.3,14.3,0.8,19.6C792,394.1,793.1,395.6,794.6,395.5z"/>
		<path opacity="0.3" fill="#F7F8F9" enable-background="new    " d="M793.5,466.6l39.3-4.3c0,0-1.2-51.1-2.6-60.2h-38.1
			C791.2,401.4,793.2,466.8,793.5,466.6z"/>
		<path opacity="0.3" fill="#F7F8F9" enable-background="new    " d="M840.2,401.4c-0.9-0.6,1.2,60.8,1.5,60.6l38.7-4
			c0,0-1.2-48-2.6-56.6H840.2z"/>
		<path opacity="0.3" fill="#F7F8F9" enable-background="new    " d="M745.3,471l39.3-4.7c0,0-1.2-55.5-2.6-65.3h-38.1
			C743,400.3,745,471.3,745.3,471z"/>
		<path opacity="0.3" fill="#F7F8F9" enable-background="new    " d="M900.5,367.6v169.7l22.3-7.8L921,369.3
			C912,358.5,900.5,367.6,900.5,367.6z M909.3,381.4v17.9l-6.1,0.4l-0.1-18.6C907.3,375.7,909.3,381.4,909.3,381.4z M902.9,405.9
			h6.7l0.1,47.1l-6.7,2L902.9,405.9z M903.6,519.4l-0.2-49.9l6.7-2.3l0.1,49.4L903.6,519.4z M912.3,382.6c4.6-7.6,6.7,1.5,6.7,1.5
			v16l-6.6-0.3L912.3,382.6z M912.5,406.2h6.7l0.1,44.3l-6.6,1.8L912.5,406.2z M913.1,516.4l-0.2-49.9l6.7-2.3l0.1,49.7L913.1,516.4
			z"/>
		<path opacity="0.3" fill="#F7F8F9" enable-background="new    " d="M475.5,639.8l19.5-21l379.4-73.2l9.9,10.4
			c0,0-9.6,21.6-32.4,2.3l-19,5.8c0,0-4.6,32.2-34.7,11l-17.1,3.8c0,0-8.1,30-37.1,8.1l-22.3,5.2c0,0-8.9,41.3-46.6,10.6l-21.9,4.8
			c0,0-15,53.6-50.9,12.4l-18.1,5.2c0,0-13.1,44.2-47.7,11.2l-15,3.5C521.3,640.1,492.3,688,475.5,639.8z"/>
	</g>
</g>
<g opacity="0.2">
	<path opacity="0.3" fill="#F7F8F9" enable-background="new    " d="M-875,1422.2c0,0-1.4-135.4-2.3-139.5c-0.9-4.2-26.4,6-26.4,6
		v128.4C-899.1,1428.7-875,1422.2-875,1422.2z"/>
	<g>
		<path fill="none" d="M-631.1,1334.6v-32.7c0,0-8.8-10.4-26.8-0.7l0.5,34.1L-631.1,1334.6z"/>
		<polygon fill="none" points="-656.8,1463.2 -656.1,1554.6 -627.2,1549.5 -627.6,1459.1 		"/>
		<polygon fill="none" points="-629.8,1346.9 -659,1346.9 -658.2,1436.8 -629.4,1433.1 		"/>
		<polygon fill="none" points="-588.6,1347.3 -617.4,1347.3 -616.7,1431.7 -588.2,1428.5 		"/>
		<path fill="none" d="M-589.3,1307c0,0-8.8-16.7-28.8-2.8l0.4,31.5l28.5,0.5V1307H-589.3z"/>
		<polygon fill="none" points="-615.6,1457.7 -614.8,1549 -586.4,1544.4 -586.8,1453.5 		"/>
		<polygon fill="none" points="-86.9,1324.5 -94.4,1324.5 -94.2,1374 -86.8,1372 		"/>
		<polygon fill="none" points="-93.8,1388.6 -93.7,1438.8 -86.2,1436 -86.3,1386.3 		"/>
		<path fill="none" d="M-87.2,1317.8v-18c0,0-2.3-5.7-6.9-0.4l0.1,18.8L-87.2,1317.8z"/>
		<polygon fill="none" points="-83.2,1385.5 -83,1435.8 -75.7,1433.2 -75.8,1383.2 		"/>
		<path fill="none" d="M-76.4,1302.6c0,0-2.3-9.2-7.4-1.5l0.1,17.4l7.3,0.3L-76.4,1302.6L-76.4,1302.6z"/>
		<polygon fill="none" points="-76.2,1324.8 -83.7,1324.8 -83.5,1371.2 -76.1,1369.4 		"/>
		<path opacity="0.3" fill="#F7F8F9" enable-background="new    " d="M-686,1595.3c-4.5,5.1-9.2,10.4-14.3,15
			c-2.6,2.3-5.3,4.4-8.1,6.4c-3,2.1-5.8,4.6-9,6.4c-2.9,1.7-6,1.6-9.3,1.5c-54.7-1.4-108.5-8.1-162.5-17.3
			c-13.4-2.3-26.8-4.6-40.2-7.2c-3.6-0.4-6.1,7.3-7.1,9.7c-4.5,11.3,19.6,14.9,27.2,17.2c26.7,8.2,54.5,12.3,82.2,15
			c22.2,2.2,44.4,5,66.7,5.5c19.1,0.4,45.6,1.9,61.8-9.8c7.9-5.7,9.3-20,11.7-28.8c1-3.8,2.1-7.7,3.1-11.5c0.1-0.3,0.1-0.5,0.2-0.8
			C-683.1,1595.2-685,1594.2-686,1595.3z"/>
		<path opacity="0.3" fill="#F7F8F9" enable-background="new    " d="M-669.5,1281.8v297l93.8-20.6l-4.8-270.8
			C-619.7,1267.6-669.5,1281.8-669.5,1281.8z M-631.1,1301.9v32.7l-26.3,0.7l-0.5-34.1C-639.8,1291.5-631.1,1301.9-631.1,1301.9z
			 M-659,1346.9h29.2l0.4,86.2l-28.8,3.7L-659,1346.9z M-656.1,1554.6l-0.7-91.3l29.2-4.2l0.4,90.4L-656.1,1554.6z M-618.1,1304.2
			c20.1-13.9,28.8,2.8,28.8,2.8v29.2l-28.5-0.5L-618.1,1304.2z M-617.4,1347.3h28.8l0.4,81.1l-28.5,3.2L-617.4,1347.3z M-614.8,1549
			l-0.7-91.3l28.8-4.2l0.4,90.9L-614.8,1549z"/>
		<path opacity="0.3" fill="#F7F8F9" enable-background="new    " d="M-923.9,1262.6c0,0.6,0.6,1.1,1.2,1.1l3.3-0.2
			c1-0.1,1.4-1.2,0.7-1.9l-2.3-2.3c-0.5-0.5-0.4-1.3,0.1-1.7c7.2-6,50.1-32.4,230.9-16l146.1,12h0.1l472,2.7c1.2,0,1.6-1.7,0.5-2.2
			l-27.9-13c-0.1-0.1-0.3-0.1-0.4-0.1l-653.2-40.7c0,0-96.2-6.5-133.4,22.2c-0.1,0.1-0.1,0.1-0.2,0.1c-1.8,0.8-24.2,10.2-37.6,25.6
			c-0.2,0.2-0.3,0.5-0.3,0.8l0.2,8.1L-923.9,1262.6z"/>
		<path opacity="0.3" fill="#F7F8F9" enable-background="new    " d="M-346.1,1315.5l34.4-1.2c0,0,6.3-11.8-1.4-24.3l-32.7-0.6
			c-2,0-3.5,1.9-3,3.8c1.4,5.2,3.3,14.3,0.8,19.6C-348.6,1314.1-347.6,1315.6-346.1,1315.5z"/>
		<path opacity="0.3" fill="#F7F8F9" enable-background="new    " d="M-395.3,1406.2l39.3-5.5c0,0-1.2-65.4-2.6-77h-38.1
			C-397.7,1322.9-395.6,1406.5-395.3,1406.2z"/>
		<path opacity="0.3" fill="#F7F8F9" enable-background="new    " d="M-347.2,1401.4l39.3-5.2c0,0-1.2-61.9-2.6-72.8h-38.1
			C-349.5,1322.6-347.5,1401.7-347.2,1401.4z"/>
		<path opacity="0.3" fill="#F7F8F9" enable-background="new    " d="M-249.8,1315.5l34.4-1.2c0,0,6.3-11.8-1.4-24.3l-32.7-0.6
			c-2,0-3.5,1.9-3,3.8c1.4,5.2,3.3,14.3,0.8,19.6C-252.3,1314.1-251.2,1315.6-249.8,1315.5z"/>
		<path opacity="0.3" fill="#F7F8F9" enable-background="new    " d="M-299,1395.4l39.3-4.9c0,0-1.2-58.6-2.6-69h-38.1
			C-301.4,1320.7-299.3,1395.6-299,1395.4z"/>
		<path opacity="0.3" fill="#F7F8F9" enable-background="new    " d="M-297.9,1315.5l34.4-1.2c0,0,6.3-11.8-1.4-24.3l-32.7-0.7
			c-2,0-3.5,1.9-3,3.8c1.4,5.2,3.3,14.3,0.8,19.6C-300.5,1314.1-299.4,1315.6-297.9,1315.5z"/>
		<polygon opacity="0.3" fill="#F7F8F9" enable-background="new    " points="-381.9,1488.9 -199.7,1453.3 -203.2,1401.2 
			-383.3,1421.4 		"/>
		<path opacity="0.3" fill="#F7F8F9" enable-background="new    " d="M-394.2,1315.5l34.4-1.2c0,0,6.3-11.8-1.4-24.3l-32.7-0.6
			c-2,0-3.5,1.9-3,3.8c1.4,5.2,3.3,14.3,0.8,19.6C-396.8,1314.1-395.7,1315.6-394.2,1315.5z"/>
		<path opacity="0.3" fill="#F7F8F9" enable-background="new    " d="M-498.9,1322h-42.4c-1-1,1.3,103.5,1.6,103.1l43.7-6.8
			C-495.9,1418.2-497.2,1336.5-498.9,1322z"/>
		<path opacity="0.3" fill="#F7F8F9" enable-background="new    " d="M-538.7,1315.5l34.4-1.2c0,0,6.3-11.8-1.4-24.3l-32.7-0.6
			c-2,0-3.5,1.9-3,3.8c1.4,5.2,3.3,14.3,0.8,19.6C-541.2,1314.1-540.2,1315.6-538.7,1315.5z"/>
		<path opacity="0.3" fill="#F7F8F9" enable-background="new    " d="M-489.2,1289.3c-2,0-3.5,1.9-3,3.8c1.4,5.2,3.3,14.3,0.8,19.6
			c-0.6,1.3,0.4,2.9,1.9,2.8l34.4-1.2c0,0,6.3-11.8-1.4-24.3L-489.2,1289.3z"/>
		<path opacity="0.3" fill="#F7F8F9" enable-background="new    " d="M-489.1,1417.8l40-6.3c0,0-1.2-75.3-2.7-88.7h-38.8
			C-491.4,1321.9-489.4,1418.1-489.1,1417.8z"/>
		<path opacity="0.3" fill="#F7F8F9" enable-background="new    " d="M-441.4,1315.5l34.4-1.2c0,0,6.3-11.8-1.4-24.3l-32.7-0.6
			c-2,0-3.5,1.9-3,3.8c1.4,5.2,3.3,14.3,0.8,19.6C-443.9,1314.1-442.9,1315.6-441.4,1315.5z"/>
		<path opacity="0.3" fill="#F7F8F9" enable-background="new    " d="M-442.5,1412l39.3-5.9c0,0-1.2-70.8-2.6-83.4h-38.1
			C-444.8,1321.8-442.8,1412.3-442.5,1412z"/>
		<path opacity="0.3" fill="#F7F8F9" enable-background="new    " d="M-799,1428.2l-1.4-152.1c-27.4-7-63.5,1.4-63.5,1.4l0.9,147.4
			C-861.1,1434.3-799,1428.2-799,1428.2z"/>
		<path opacity="0.3" fill="#F7F8F9" enable-background="new    " d="M-720.6,1427.8v-144.2c-16.2-9.7-65.8-8.3-65.8-8.3v151.6
			C-779,1433.3-720.6,1427.8-720.6,1427.8z"/>
		<circle opacity="0.3" fill="#F7F8F9" enable-background="new    " cx="-830.3" cy="1511.2" r="18.1"/>
		<path opacity="0.3" fill="#F7F8F9" enable-background="new    " d="M-56.8,1272l-1.8-1.2c-0.5-0.3-1.1-0.5-1.6-0.5l-484.2-2.8
			c-0.1,0-0.1,0-0.2,0l-146.6-12.1c-184.8-16.8-220.6,12.7-220.9,13c0.1-0.1,0.2-0.2,0.2-0.2c-1.8-1.8-5-0.6-5,2l-2.7,263.2
			c0,0.4-0.1,0.7-0.2,1.1c-1.5,3.5-10.1,24.6-11.7,38.7c-0.8,6.9,0.1,12.2,4.4,12.7c0,0,159.7,32.3,206.4,23.2
			c0.2,0,0.4-0.1,0.6-0.2c2.5-1.1,20-9.1,30.9-23.9c6.1-8.1,10.2-18.3,8.6-30.6c0-0.1,0-0.2,0-0.3l-2.8-280.2c0-1.4,1-2.7,2.4-2.9
			c11-1.9,57.6-8.3,109.5,6.3c1.2,0.4,2.1,1.5,2.1,2.8l3.7,283.9c0,0.3,0.1,0.6,0.1,0.9c0.9,2.7,6,16.6,15.2,15.6
			c0.8-0.1,1.5-0.5,2-1.1l3.7-4.6l-9.9-296l446.4-1.4l0.2,184.3v0.4c0.4-0.6,1-1,1.6-1.2l6-1.7v-175.6c0,0,16-11.9,28.6,0.9
			l2.3,166.2l6.4-1.8c1.3-0.4,2.1-1.5,2.1-2.8l-0.2-165.7c0-1.4,1-2.6,2.4-2.9c0.4-0.1,0.8-0.2,1.2-0.3
			C-55.3,1276.5-54.8,1273.4-56.8,1272z M-911.6,1283.1c0,0,50.8-33.4,201-9l1.8,182.8l-0.2-15.3c-105.2,22.5-199.6-2.3-203.5-3.3
			L-911.6,1283.1z M-913,1535.6l0.5-87c54.8,30.5,203.7,8.3,203.7,8.3l1,103C-707.9,1559.9-896.3,1548.1-913,1535.6z"/>
		<path opacity="0.3" fill="#F7F8F9" enable-background="new    " d="M-153.5,1315.5l34.4-1.2c0,0,6.3-11.8-1.4-24.3l-32.7-0.6
			c-2,0-3.5,1.9-3,3.8c1.4,5.2,3.3,14.3,0.8,19.6C-156,1314.1-154.9,1315.6-153.5,1315.5z"/>
		<path opacity="0.3" fill="#F7F8F9" enable-background="new    " d="M-201.6,1315.5l34.4-1.2c0,0,6.3-11.8-1.4-24.3l-32.7-0.6
			c-2,0-3.5,1.9-3,3.8c1.4,5.2,3.3,14.3,0.8,19.6C-204.2,1314.1-203.1,1315.6-201.6,1315.5z"/>
		<path opacity="0.3" fill="#F7F8F9" enable-background="new    " d="M-202.7,1386.6l39.3-4.3c0,0-1.2-51.1-2.6-60.2h-38.1
			C-205,1321.4-203,1386.8-202.7,1386.6z"/>
		<path opacity="0.3" fill="#F7F8F9" enable-background="new    " d="M-156,1321.4c-0.9-0.6,1.2,60.8,1.5,60.6l38.7-4
			c0,0-1.2-48-2.6-56.6H-156z"/>
		<path opacity="0.3" fill="#F7F8F9" enable-background="new    " d="M-250.9,1391l39.3-4.7c0,0-1.2-55.5-2.6-65.3h-38.1
			C-253.2,1320.3-251.2,1391.3-250.9,1391z"/>
		<path opacity="0.3" fill="#F7F8F9" enable-background="new    " d="M-95.7,1287.6v169.7l22.3-7.8l-1.8-160.2
			C-84.2,1278.5-95.7,1287.6-95.7,1287.6z M-86.9,1301.4v17.9l-6.1,0.4l-0.1-18.6C-88.9,1295.7-86.9,1301.4-86.9,1301.4z
			 M-93.3,1325.9h6.7l0.1,47.1l-6.7,2L-93.3,1325.9z M-92.6,1439.4l-0.2-49.9l6.7-2.3l0.1,49.4L-92.6,1439.4z M-83.9,1302.6
			c4.6-7.6,6.7,1.5,6.7,1.5v16l-6.6-0.3L-83.9,1302.6z M-83.7,1326.2h6.7l0.1,44.3l-6.6,1.8L-83.7,1326.2z M-83.1,1436.4l-0.2-49.9
			l6.7-2.3l0.1,49.7L-83.1,1436.4z"/>
		<path opacity="0.3" fill="#F7F8F9" enable-background="new    " d="M-520.8,1559.8l19.5-21l379.4-73.2l9.9,10.4
			c0,0-9.6,21.6-32.4,2.3l-19,5.8c0,0-4.6,32.2-34.7,11l-17.1,3.8c0,0-8.1,30-37.1,8.1l-22.3,5.2c0,0-8.9,41.3-46.6,10.6l-21.9,4.8
			c0,0-15,53.6-50.9,12.4l-18.1,5.2c0,0-13.1,44.2-47.7,11.2l-15,3.5C-475,1560.1-504,1608-520.8,1559.8z"/>
	</g>
</g>
</svg>
