<?xml version="1.0" encoding="utf-8"?>
<!-- Generator: Adobe Illustrator 18.1.1, SVG Export Plug-In . SVG Version: 6.00 Build 0)  -->
<svg version="1.1" id="Layer_1" xmlns="http://www.w3.org/2000/svg" xmlns:xlink="http://www.w3.org/1999/xlink" x="0px" y="0px"
	 viewBox="0 0 1000 1000" enable-background="new 0 0 1000 1000" xml:space="preserve">
<path fill="none" d="M378.5,356.3v-32.7c0,0-8.8-10.4-26.8-0.7l0.5,34.1L378.5,356.3z"/>
<polygon fill="none" points="352.8,484.9 353.5,576.3 382.4,571.2 382,480.8 "/>
<polygon fill="none" points="379.8,368.6 350.6,368.6 351.4,458.5 380.2,454.8 "/>
<polygon fill="none" points="421,369 392.2,369 392.9,453.4 421.4,450.2 "/>
<path fill="none" d="M420.3,328.7c0,0-8.8-16.7-28.8-2.8l0.4,31.5l28.5,0.5V328.7z"/>
<polygon fill="none" points="394,479.4 394.8,570.7 423.2,566.1 422.8,475.2 "/>
<polygon fill="none" points="922.7,346.2 915.2,346.2 915.4,395.7 922.8,393.7 "/>
<polygon fill="none" points="915.8,410.3 915.9,460.5 923.4,457.7 923.3,408 "/>
<path fill="none" d="M922.4,339.5v-18c0,0-2.3-5.7-6.9-0.4l0.1,18.8L922.4,339.5z"/>
<polygon fill="none" points="926.4,407.2 926.6,457.5 933.9,454.9 933.8,404.9 "/>
<path fill="none" d="M933.2,324.3c0,0-2.3-9.2-7.4-1.5l0.1,17.4l7.3,0.3V324.3z"/>
<polygon fill="none" points="933.4,346.5 925.9,346.5 926.1,392.9 933.5,391.1 "/>
<g opacity="0.2">
	<path opacity="0.3" fill="#F7F8F9" d="M503.7,563.2L485,583.6c0,0,19.2,56.5,56.1,7.5l9.6-2.3c0,0,19.6,21.5,33.3,0.9
		c0,0,6.8-6.1,5-20.1l17.3-5.1c0,0,39.7,42.5,48.8-12.1l21-4.7c0,0,28.3,26.2,44.7-10.3l21.4-5.1c0,0,29.6,15.4,35.6-7.9l16.4-3.7
		c0,0,29.2,25.7,33.3-10.7l18.2-5.6c0,0,30.6,19.2,38.4,5.6l-16.8-18L503.7,563.2z"/>
	<path opacity="0.3" fill="#F7F8F9" d="M322.2,614.3c-11.8,13.1-29.8,25.7-30,25.8c-46.8,9.1-209.2-26-209.2-26
		c-4.3-0.6-9.3,15.2-9.3,15.2c-0.4,1.2,11.8,5.8,13,6.3c9.6,4,19.7,5.9,29.7,8.3c10.7,2.5,21.5,4.8,32.3,6.7c22.4,4.1,45,7,67.7,8.4
		c17,1.1,34.1,1.4,51.1,0.6c11-0.5,22-1.4,32.9-2.9c3.5-0.5,7-1.1,10.4-1.8c1.6-0.3,2.9-1.5,3.4-3.1l10.5-36.1
		C325,614.2,323.2,613.2,322.2,614.3z"/>
	<path opacity="0.3" fill="#F7F8F9" d="M340.1,303.5v297l93.8-20.6l-4.8-270.8C389.9,289.3,340.1,303.5,340.1,303.5z M378.5,323.6
		v32.7l-26.3,0.7l-0.5-34.1C369.8,313.2,378.5,323.6,378.5,323.6z M350.6,368.6h29.2l0.4,86.2l-28.8,3.7L350.6,368.6z M353.5,576.3
		l-0.7-91.3l29.2-4.2l0.4,90.4L353.5,576.3z M391.5,325.9c20.1-13.9,28.8,2.8,28.8,2.8v29.2l-28.5-0.5L391.5,325.9z M392.2,369H421
		l0.4,81.1l-28.5,3.2L392.2,369z M394.8,570.7l-0.7-91.3l28.8-4.2l0.4,90.9L394.8,570.7z"/>
	<path opacity="0.3" fill="#F7F8F9" d="M85.7,284.3c0,0.6,0.6,1.1,1.2,1.1l3.3-0.2c1-0.1,1.4-1.2,0.7-1.9l-2.3-2.3
		c-0.5-0.5-0.4-1.3,0.1-1.7c7.2-6,50.1-32.4,230.9-16l146.1,12c0,0,0.1,0,0.1,0l472,2.7c1.2,0,1.6-1.7,0.5-2.2l-27.9-13
		c-0.1-0.1-0.3-0.1-0.4-0.1L256.8,222c0,0-96.2-6.5-133.4,22.2c-0.1,0.1-0.1,0.1-0.2,0.1c-1.8,0.8-24.2,10.2-37.6,25.6
		c-0.2,0.2-0.3,0.5-0.3,0.8l0.2,8.1L85.7,284.3z"/>
	<path opacity="0.3" fill="#F7F8F9" d="M663.5,337.2l34.4-1.2c0,0,6.3-11.8-1.4-24.3l-32.7-0.6c-2,0-3.5,1.9-3,3.8
		c1.4,5.2,3.3,14.3,0.8,19.6C661,335.8,662,337.3,663.5,337.2z"/>
	<path opacity="0.3" fill="#F7F8F9" d="M614.3,427.9l39.3-5.5c0,0-1.2-65.4-2.6-77h-38.1C611.9,344.6,614,428.2,614.3,427.9z"/>
	<path opacity="0.3" fill="#F7F8F9" d="M662.4,423.1l39.3-5.2c0,0-1.2-61.9-2.6-72.8H661C660.1,344.3,662.1,423.4,662.4,423.1z"/>
	<path opacity="0.3" fill="#F7F8F9" d="M759.8,337.2l34.4-1.2c0,0,6.3-11.8-1.4-24.3l-32.7-0.6c-2,0-3.5,1.9-3,3.8
		c1.4,5.2,3.3,14.3,0.8,19.6C757.3,335.8,758.4,337.3,759.8,337.2z"/>
	<path opacity="0.3" fill="#F7F8F9" d="M710.6,420.1l39.3-4.9c0,0-1.2-58.6-2.6-69h-38.1C708.2,345.4,710.3,420.3,710.6,420.1z"/>
	<path opacity="0.3" fill="#F7F8F9" d="M711.7,337.2l34.4-1.2c0,0,6.3-11.8-1.4-24.3L712,311c-2,0-3.5,1.9-3,3.8
		c1.4,5.2,3.3,14.3,0.8,19.6C709.1,335.8,710.2,337.3,711.7,337.2z"/>
	<polygon opacity="0.3" fill="#F7F8F9" points="627.7,510.6 809.9,475 806.4,422.9 626.3,443.1 	"/>
	<path opacity="0.3" fill="#F7F8F9" d="M615.4,337.2l34.4-1.2c0,0,6.3-11.8-1.4-24.3l-32.7-0.6c-2,0-3.5,1.9-3,3.8
		c1.4,5.2,3.3,14.3,0.8,19.6C612.8,335.8,613.9,337.3,615.4,337.2z"/>
	<path opacity="0.3" fill="#F7F8F9" d="M510.7,343.7h-42.4c-1-1,1.3,100,1.6,99.6l43.7-6.6C513.7,436.6,512.4,357.7,510.7,343.7z"/>
	<path opacity="0.3" fill="#F7F8F9" d="M470.9,337.2l34.4-1.2c0,0,6.3-11.8-1.4-24.3l-32.7-0.6c-2,0-3.5,1.9-3,3.8
		c1.4,5.2,3.3,14.3,0.8,19.6C468.4,335.8,469.4,337.3,470.9,337.2z"/>
	<path opacity="0.3" fill="#F7F8F9" d="M519.4,311c-2,0-3.5,1.9-3,3.8c1.4,5.2,3.3,14.3,0.8,19.6c-0.6,1.3,0.4,2.9,1.9,2.8l34.4-1.2
		c0,0,6.3-11.8-1.4-24.3L519.4,311z"/>
	<path opacity="0.3" fill="#F7F8F9" d="M519.5,437.5l40-6.2c0,0-1.2-73.7-2.7-86.8h-38.8C517.2,343.6,519.2,437.8,519.5,437.5z"/>
	<path opacity="0.3" fill="#F7F8F9" d="M567.2,337.2l34.4-1.2c0,0,6.3-11.8-1.4-24.3l-32.7-0.6c-2,0-3.5,1.9-3,3.8
		c1.4,5.2,3.3,14.3,0.8,19.6C564.7,335.8,565.7,337.3,567.2,337.2z"/>
	<path opacity="0.3" fill="#F7F8F9" d="M566.1,431.6l39.3-5.8c0,0-1.2-69.1-2.6-81.4h-38.1C563.8,343.5,565.8,431.9,566.1,431.6z"/>
	<path opacity="0.3" fill="#F7F8F9" d="M134.6,443.9c0,0-1.4-135.4-2.3-139.5c-0.9-4.2-26.4,6-26.4,6v128.4
		C110.5,450.4,134.6,443.9,134.6,443.9z"/>
	<path opacity="0.3" fill="#F7F8F9" d="M210.6,449.9l-1.4-152.1c-27.4-7-63.5,1.4-63.5,1.4l0.9,147.4
		C148.5,456,210.6,449.9,210.6,449.9z"/>
	<path opacity="0.3" fill="#F7F8F9" d="M289,449.5V305.3c-16.2-9.7-65.8-8.3-65.8-8.3v151.6C230.6,455,289,449.5,289,449.5z"/>
	<circle opacity="0.3" fill="#F7F8F9" cx="179.3" cy="532.9" r="18.1"/>
	<path opacity="0.3" fill="#F7F8F9" d="M98,459.9l-0.7,10.4c54.2,30.6,201.7,8.3,201.7,8.3v-15.3C192.5,486.3,98,459.9,98,459.9z"/>
	<path opacity="0.3" fill="#F7F8F9" d="M890.4,507.3l1.9-0.3l-2.9,0.2C889.8,507.3,890.1,507.4,890.4,507.3z"/>
	<path opacity="0.3" fill="#F7F8F9" d="M952.8,293.7l-1.8-1.2c-0.5-0.3-1.1-0.5-1.6-0.5l-484.2-2.8c-0.1,0-0.1,0-0.2,0l-146.6-12.1
		c-184.8-16.8-220.6,12.7-220.9,13c0.1-0.1,0.2-0.2,0.2-0.2c-1.8-1.8-5-0.6-5,2l-2.7,263.2c0,0.4-0.1,0.7-0.2,1.1
		c-1.5,3.5-10.1,24.6-11.7,38.7c-0.8,6.9,0.1,12.2,4.4,12.7c0,0,159.7,32.3,206.4,23.2c0.2,0,0.4-0.1,0.6-0.2
		c2.5-1.1,20-9.1,30.9-23.9c6.1-8.1,10.2-18.3,8.6-30.6c0-0.1,0-0.2,0-0.3l-2.8-280.2c0-1.4,1-2.7,2.4-2.9
		c11-1.9,57.6-8.3,109.5,6.3c1.2,0.4,2.1,1.5,2.1,2.8l3.7,283.9c0,0.3,0.1,0.6,0.1,0.9c0.9,2.7,6,16.6,15.2,15.6
		c0.8-0.1,1.5-0.5,2-1.1l3.7-4.6L455,300.5l446.4-1.4l0.2,184.3l0,0.4c0.4-0.6,1-1,1.6-1.2l6-1.7V305.3c0,0,16-11.9,28.6,0.9
		l2.3,166.2l6.4-1.8c1.3-0.4,2.1-1.5,2.1-2.8l-0.2-165.7c0-1.4,1-2.6,2.4-2.9c0.4-0.1,0.8-0.2,1.2-0.3
		C954.3,298.2,954.8,295.1,952.8,293.7z M96.6,557.3L98,304.8c0,0,50.8-33.4,201-9l2.8,285.8C301.7,581.6,113.3,569.8,96.6,557.3z"
		/>
	<path opacity="0.3" fill="#F7F8F9" d="M856.1,337.2l34.4-1.2c0,0,6.3-11.8-1.4-24.3l-32.7-0.6c-2,0-3.5,1.9-3,3.8
		c1.4,5.2,3.3,14.3,0.8,19.6C853.6,335.8,854.7,337.3,856.1,337.2z"/>
	<path opacity="0.3" fill="#F7F8F9" d="M808,337.2l34.4-1.2c0,0,6.3-11.8-1.4-24.3l-32.7-0.6c-2,0-3.5,1.9-3,3.8
		c1.4,5.2,3.3,14.3,0.8,19.6C805.4,335.8,806.5,337.3,808,337.2z"/>
	<path opacity="0.3" fill="#F7F8F9" d="M806.9,411.3l39.3-4.3c0,0-1.2-51.1-2.6-60.2h-38.1C804.6,346.1,806.6,411.5,806.9,411.3z"/>
	<path opacity="0.3" fill="#F7F8F9" d="M853.6,346.1c-0.9-0.6,1.2,60.8,1.5,60.6l39.3-4c0,0-1.2-48-2.6-56.6H853.6z"/>
	<path opacity="0.3" fill="#F7F8F9" d="M758.7,415.7l39.3-4.7c0,0-1.2-55.5-2.6-65.3h-38.1C756.4,345,758.4,416,758.7,415.7z"/>
	<path opacity="0.3" fill="#F7F8F9" d="M866.9,484.2c0.6,0.1,1.1,0.4,1.5,0.9l19.4,21.3c0.3,0.3,0.6,0.5,0.9,0.7l-21.2-22.9
		L866.9,484.2z"/>
	<path opacity="0.3" fill="#F7F8F9" d="M913.9,309.3v169.7l22.3-7.8l-1.8-160.2C925.4,300.2,913.9,309.3,913.9,309.3z M922.7,323.1
		v17.9l-6.1,0.4l-0.1-18.6C920.7,317.4,922.7,323.1,922.7,323.1z M916.3,347.6h6.7l0.1,47.1l-6.7,2L916.3,347.6z M917,461.1
		l-0.2-49.9l6.7-2.3l0.1,49.4L917,461.1z M925.7,324.3c4.6-7.6,6.7,1.5,6.7,1.5v16l-6.6-0.3L925.7,324.3z M925.9,347.9h6.7l0.1,44.3
		l-6.6,1.8L925.9,347.9z M926.5,458.1l-0.2-49.9l6.7-2.3l0.1,49.7L926.5,458.1z"/>
</g>
<g>
	<path opacity="0.3" fill="#F7F8F9" d="M-497.1,831.2l-18.7,20.4c0,0,19.2,56.5,56.1,7.5l9.6-2.3c0,0,19.6,21.5,33.3,0.9
		c0,0,6.8-6.1,5-20.1l17.3-5.1c0,0,39.7,42.5,48.8-12.1l21-4.7c0,0,28.3,26.2,44.7-10.3l21.4-5.1c0,0,29.6,15.4,35.6-7.9l16.4-3.7
		c0,0,29.2,25.7,33.3-10.7l18.2-5.6c0,0,30.6,19.2,38.4,5.6l-16.8-18L-497.1,831.2z"/>
	<path opacity="0.3" fill="#F7F8F9" d="M-678.6,882.3c-11.8,13.1-29.8,25.7-30,25.8c-46.8,9.1-209.2-26-209.2-26
		c-4.3-0.6-9.3,15.2-9.3,15.2c-0.4,1.2,11.8,5.8,13,6.3c9.6,4,19.7,5.9,29.7,8.3c10.7,2.5,21.5,4.8,32.3,6.7c22.4,4.1,45,7,67.7,8.4
		c17,1.1,34.1,1.4,51.1,0.6c11-0.5,22-1.4,32.9-2.9c3.5-0.5,7-1.1,10.4-1.8c1.6-0.3,2.9-1.5,3.4-3.1l10.5-36.1
		C-675.8,882.3-677.6,881.2-678.6,882.3z"/>
	<path opacity="0.3" fill="#F7F8F9" d="M-660.7,571.6v297l93.8-20.6l-4.8-270.8C-610.9,557.3-660.7,571.6-660.7,571.6z
		 M-622.3,591.6v32.7l-26.3,0.7l-0.5-34.1C-631,581.2-622.3,591.6-622.3,591.6z M-650.2,636.6h29.2l0.4,86.2l-28.8,3.7L-650.2,636.6
		z M-647.2,844.3L-648,753l29.2-4.2l0.4,90.4L-647.2,844.3z M-609.3,594c20.1-13.9,28.8,2.8,28.8,2.8v29.2l-28.5-0.5L-609.3,594z
		 M-608.6,637.1h28.8l0.4,81.1l-28.5,3.2L-608.6,637.1z M-606,838.7l-0.7-91.3l28.8-4.2l0.4,90.9L-606,838.7z"/>
	<path opacity="0.3" fill="#F7F8F9" d="M-915.1,552.3c0,0.6,0.6,1.1,1.2,1.1l3.3-0.2c1-0.1,1.4-1.2,0.7-1.9l-2.3-2.3
		c-0.5-0.5-0.4-1.3,0.1-1.7c7.2-6,50.1-32.4,230.9-16l146.1,12c0,0,0.1,0,0.1,0l472,2.7c1.2,0,1.6-1.7,0.5-2.2l-27.9-13
		c-0.1-0.1-0.3-0.1-0.4-0.1L-744,490c0,0-96.2-6.5-133.4,22.2c-0.1,0.1-0.1,0.1-0.2,0.1c-1.8,0.8-24.2,10.2-37.6,25.6
		c-0.2,0.2-0.3,0.5-0.3,0.8l0.2,8.1L-915.1,552.3z"/>
	<path opacity="0.3" fill="#F7F8F9" d="M-337.3,605.3l34.4-1.2c0,0,6.3-11.8-1.4-24.3l-32.7-0.6c-2,0-3.5,1.9-3,3.8
		c1.4,5.2,3.3,14.3,0.8,19.6C-339.8,603.8-338.7,605.3-337.3,605.3z"/>
	<path opacity="0.3" fill="#F7F8F9" d="M-386.5,696l39.3-5.5c0,0-1.2-65.4-2.6-77H-388C-388.9,612.6-386.8,696.3-386.5,696z"/>
	<path opacity="0.3" fill="#F7F8F9" d="M-338.4,691.1l39.3-5.2c0,0-1.2-61.9-2.6-72.8h-38.1C-340.7,612.3-338.7,691.4-338.4,691.1z"
		/>
	<path opacity="0.3" fill="#F7F8F9" d="M-240.9,605.3l34.4-1.2c0,0,6.3-11.8-1.4-24.3l-32.7-0.6c-2,0-3.5,1.9-3,3.8
		c1.4,5.2,3.3,14.3,0.8,19.6C-243.5,603.8-242.4,605.3-240.9,605.3z"/>
	<path opacity="0.3" fill="#F7F8F9" d="M-290.2,688.1l39.3-4.9c0,0-1.2-58.6-2.6-69h-38.1C-292.5,613.4-290.5,688.4-290.2,688.1z"/>
	<path opacity="0.3" fill="#F7F8F9" d="M-289.1,605.3l34.4-1.2c0,0,6.3-11.8-1.4-24.3l-32.7-0.6c-2,0-3.5,1.9-3,3.8
		c1.4,5.2,3.3,14.3,0.8,19.6C-291.6,603.8-290.6,605.3-289.1,605.3z"/>
	<polygon opacity="0.3" fill="#F7F8F9" points="-373.1,778.6 -190.9,743.1 -194.4,690.9 -374.5,711.2 	"/>
	<path opacity="0.3" fill="#F7F8F9" d="M-385.4,605.3l34.4-1.2c0,0,6.3-11.8-1.4-24.3l-32.7-0.6c-2,0-3.5,1.9-3,3.8
		c1.4,5.2,3.3,14.3,0.8,19.6C-388,603.8-386.9,605.3-385.4,605.3z"/>
	<path opacity="0.3" fill="#F7F8F9" d="M-490,611.7h-42.4c-1-1,1.3,100,1.6,99.6l43.7-6.6C-487.1,704.7-488.4,625.7-490,611.7z"/>
	<path opacity="0.3" fill="#F7F8F9" d="M-529.9,605.3l34.4-1.2c0,0,6.3-11.8-1.4-24.3l-32.7-0.6c-2,0-3.5,1.9-3,3.8
		c1.4,5.2,3.3,14.3,0.8,19.6C-532.4,603.8-531.4,605.3-529.9,605.3z"/>
	<path opacity="0.3" fill="#F7F8F9" d="M-481.4,579.1c-2,0-3.5,1.9-3,3.8c1.4,5.2,3.3,14.3,0.8,19.6c-0.6,1.3,0.4,2.9,1.9,2.8
		l34.4-1.2c0,0,6.3-11.8-1.4-24.3L-481.4,579.1z"/>
	<path opacity="0.3" fill="#F7F8F9" d="M-481.2,705.5l40-6.2c0,0-1.2-73.7-2.7-86.8h-38.8C-483.6,611.6-481.5,705.9-481.2,705.5z"/>
	<path opacity="0.3" fill="#F7F8F9" d="M-433.6,605.3l34.4-1.2c0,0,6.3-11.8-1.4-24.3l-32.7-0.6c-2,0-3.5,1.9-3,3.8
		c1.4,5.2,3.3,14.3,0.8,19.6C-436.1,603.8-435,605.3-433.6,605.3z"/>
	<path opacity="0.3" fill="#F7F8F9" d="M-434.7,699.6l39.3-5.8c0,0-1.2-69.1-2.6-81.4h-38.1C-437,611.5-435,699.9-434.7,699.6z"/>
	<path opacity="0.3" fill="#F7F8F9" d="M-866.2,712c0,0-1.4-135.4-2.3-139.5c-0.9-4.2-26.4,6-26.4,6v128.4
		C-890.3,718.5-866.2,712-866.2,712z"/>
	<path opacity="0.3" fill="#F7F8F9" d="M-790.2,718l-1.4-152.1c-27.4-7-63.5,1.4-63.5,1.4l0.9,147.4C-852.3,724-790.2,718-790.2,718
		z"/>
	<path opacity="0.3" fill="#F7F8F9" d="M-711.8,717.5V573.4c-16.2-9.7-65.8-8.3-65.8-8.3v151.6
		C-770.2,723.1-711.8,717.5-711.8,717.5z"/>
	<circle opacity="0.3" fill="#F7F8F9" cx="-821.5" cy="801" r="18.1"/>
	<path opacity="0.3" fill="#F7F8F9" d="M-902.8,728l-0.7,10.4c54.2,30.6,201.7,8.3,201.7,8.3v-15.3
		C-808.2,754.4-902.8,728-902.8,728z"/>
	<path opacity="0.3" fill="#F7F8F9" d="M-110.4,775.4l1.9-0.3l-2.9,0.2C-111,775.4-110.7,775.4-110.4,775.4z"/>
	<path opacity="0.3" fill="#F7F8F9" d="M-48,561.7l-1.8-1.2c-0.5-0.3-1.1-0.5-1.6-0.5l-484.2-2.8c-0.1,0-0.1,0-0.2,0l-146.6-12.1
		c-184.8-16.8-220.6,12.7-220.9,13c0.1-0.1,0.2-0.2,0.2-0.2c-1.8-1.8-5-0.6-5,2l-2.7,263.2c0,0.4-0.1,0.7-0.2,1.1
		c-1.5,3.5-10.1,24.6-11.7,38.7c-0.8,6.9,0.1,12.2,4.4,12.7c0,0,159.7,32.3,206.4,23.2c0.2,0,0.4-0.1,0.6-0.2
		c2.5-1.1,20-9.1,30.9-23.9c6.1-8.1,10.2-18.3,8.6-30.6c0-0.1,0-0.2,0-0.3l-2.8-280.2c0-1.4,1-2.7,2.4-2.9
		c11-1.9,57.6-8.3,109.5,6.3c1.2,0.4,2.1,1.5,2.1,2.8l3.7,283.9c0,0.3,0.1,0.6,0.1,0.9c0.9,2.7,6,16.6,15.2,15.6
		c0.8-0.1,1.5-0.5,2-1.1l3.7-4.6l-10.2-296.1l446.4-1.4l0.2,184.3l0,0.4c0.4-0.6,1-1,1.6-1.2l6-1.7V573.3c0,0,16-11.9,28.6,0.9
		l2.3,166.2l6.4-1.8c1.3-0.4,2.1-1.5,2.1-2.8l-0.2-165.7c0-1.4,1-2.6,2.4-2.9c0.4-0.1,0.8-0.2,1.2-0.3
		C-46.5,566.2-46,563.1-48,561.7z M-904.2,825.3l1.4-252.4c0,0,50.8-33.4,201-9l2.8,285.8C-699.1,849.7-887.5,837.8-904.2,825.3z"/>
	<path opacity="0.3" fill="#F7F8F9" d="M-144.6,605.3l34.4-1.2c0,0,6.3-11.8-1.4-24.3l-32.7-0.6c-2,0-3.5,1.9-3,3.8
		c1.4,5.2,3.3,14.3,0.8,19.6C-147.2,603.8-146.1,605.3-144.6,605.3z"/>
	<path opacity="0.3" fill="#F7F8F9" d="M-192.8,605.3l34.4-1.2c0,0,6.3-11.8-1.4-24.3l-32.7-0.6c-2,0-3.5,1.9-3,3.8
		c1.4,5.2,3.3,14.3,0.8,19.6C-195.3,603.8-194.3,605.3-192.8,605.3z"/>
	<path opacity="0.3" fill="#F7F8F9" d="M-193.9,679.3l39.3-4.3c0,0-1.2-51.1-2.6-60.2h-38.1C-196.2,614.2-194.2,679.6-193.9,679.3z"
		/>
	<path opacity="0.3" fill="#F7F8F9" d="M-147.2,614.1c-0.9-0.6,1.2,60.8,1.5,60.6l39.3-4c0,0-1.2-48-2.6-56.6H-147.2z"/>
	<path opacity="0.3" fill="#F7F8F9" d="M-242.1,683.8l39.3-4.7c0,0-1.2-55.5-2.6-65.3h-38.1C-244.4,613.1-242.3,684-242.1,683.8z"/>
	<path opacity="0.3" fill="#F7F8F9" d="M-133.8,752.3c0.6,0.1,1.1,0.4,1.5,0.9l19.4,21.3c0.3,0.3,0.6,0.5,0.9,0.7l-21.2-22.9
		L-133.8,752.3z"/>
	<path opacity="0.3" fill="#F7F8F9" d="M-86.9,577.4v169.7l22.3-7.8l-1.8-160.2C-75.4,568.2-86.9,577.4-86.9,577.4z M-78.1,591.1
		V609l-6.1,0.4l-0.1-18.6C-80.1,585.4-78.1,591.1-78.1,591.1z M-84.5,615.7h6.7l0.1,47.1l-6.7,2L-84.5,615.7z M-83.8,729.2
		l-0.2-49.9l6.7-2.3l0.1,49.4L-83.8,729.2z M-75.1,592.4c4.6-7.6,6.7,1.5,6.7,1.5v16l-6.6-0.3L-75.1,592.4z M-74.9,615.9h6.7
		l0.1,44.3l-6.6,1.8L-74.9,615.9z M-74.3,726.1l-0.2-49.9l6.7-2.3l0.1,49.7L-74.3,726.1z"/>
</g>
</svg>
