<?xml version="1.0" encoding="utf-8"?>
<!-- Generator: Adobe Illustrator 18.1.1, SVG Export Plug-In . SVG Version: 6.00 Build 0)  -->
<svg version="1.1" id="Layer_1" xmlns="http://www.w3.org/2000/svg" xmlns:xlink="http://www.w3.org/1999/xlink" x="0px" y="0px"
	 viewBox="0 0 881.4 448.1" enable-background="new 0 0 881.4 448.1" xml:space="preserve">
<path fill="#515050" enable-background="new    " d="M62,222.5c0,0-1.4-135.4-2.3-139.5c-0.9-4.2-26.4,6-26.4,6v128.4
	C37.9,229,62,222.5,62,222.5z"/>
<path fill="#515050" enable-background="new    " d="M305.9,134.9v-32.7c0,0-8.8-10.4-26.8-0.7l0.5,34.1L305.9,134.9z"/>
<polygon fill="#515050" enable-background="new    " points="280.2,263.5 280.9,354.9 309.8,349.8 309.4,259.4 "/>
<polygon fill="#515050" enable-background="new    " points="307.2,147.2 278,147.2 278.8,237.1 307.6,233.4 "/>
<polygon fill="#515050" enable-background="new    " points="348.4,147.6 319.6,147.6 320.3,232 348.8,228.8 "/>
<path fill="#515050" enable-background="new    " d="M347.7,107.3c0,0-8.8-16.7-28.8-2.8l0.4,31.5l28.5,0.5v-29.2H347.7z"/>
<polygon fill="#515050" enable-background="new    " points="321.4,258 322.2,349.3 350.6,344.7 350.2,253.8 "/>
<polygon fill="#515050" enable-background="new    " points="850.1,124.8 842.6,124.8 842.8,174.3 850.2,172.3 "/>
<polygon fill="#515050" enable-background="new    " points="843.2,188.9 843.3,239.1 850.8,236.3 850.7,186.6 "/>
<path fill="#515050" enable-background="new    " d="M849.8,118.1v-18c0,0-2.3-5.7-6.9-0.4l0.1,18.8L849.8,118.1z"/>
<polygon fill="#515050" enable-background="new    " points="853.8,185.8 854,236.1 861.3,233.5 861.2,183.5 "/>
<path fill="#515050" enable-background="new    " d="M860.6,102.9c0,0-2.3-9.2-7.4-1.5l0.1,17.4l7.3,0.3L860.6,102.9L860.6,102.9z"
	/>
<polygon fill="#515050" enable-background="new    " points="860.8,125.1 853.3,125.1 853.5,171.5 860.9,169.7 "/>
<path fill="#C71D1B" enable-background="new    " d="M251.1,395.6c-4.5,5.1-9.2,10.4-14.3,15c-2.6,2.3-5.3,4.4-8.1,6.4
	c-3,2.1-5.8,4.6-9,6.4c-2.9,1.7-6,1.6-9.3,1.5c-54.7-1.4-108.5-8.1-162.5-17.3c-13.4-2.3-26.8-4.6-40.2-7.2
	c-3.6-0.4-6.1,7.3-7.1,9.7c-4.5,11.3,19.6,14.9,27.2,17.2c26.7,8.2,54.5,12.3,82.2,15c22.2,2.2,44.4,5,66.7,5.5
	c19.1,0.4,45.6,1.9,61.8-9.8c7.9-5.7,9.3-20,11.7-28.8c1-3.8,2.1-7.7,3.1-11.5c0.1-0.3,0.1-0.5,0.2-0.8
	C253.9,395.5,252.1,394.5,251.1,395.6z"/>
<path fill="#C71D1B" enable-background="new    " d="M13.1,62.9c0,0.6,0.6,1.1,1.2,1.1l3.3-0.2c1-0.1,1.4-1.2,0.7-1.9L16,59.6
	c-0.5-0.5-0.4-1.3,0.1-1.7c7.2-6,50.1-32.4,230.9-16l146.1,12h0.1l472,2.7c1.2,0,1.6-1.7,0.5-2.2l-27.9-13c-0.1-0.1-0.3-0.1-0.4-0.1
	L184.2,0.6c0,0-96.2-6.5-133.4,22.2c-0.1,0.1-0.1,0.1-0.2,0.1C48.8,23.7,26.4,33.1,13,48.5c-0.2,0.2-0.3,0.5-0.3,0.8l0.2,8.1
	L13.1,62.9z"/>
<path fill="#515050" enable-background="new    " d="M590.9,115.8l34.4-1.2c0,0,6.3-11.8-1.4-24.3l-32.7-0.6c-2,0-3.5,1.9-3,3.8
	c1.4,5.2,3.3,14.3,0.8,19.6C588.4,114.4,589.4,115.9,590.9,115.8z"/>
<path fill="#515050" enable-background="new    " d="M541.7,206.5L581,201c0,0-1.2-65.4-2.6-77h-38.1
	C539.3,123.2,541.4,206.8,541.7,206.5z"/>
<path fill="#515050" enable-background="new    " d="M589.8,201.7l39.3-5.2c0,0-1.2-61.9-2.6-72.8h-38.1
	C587.5,122.9,589.5,202,589.8,201.7z"/>
<path fill="#515050" enable-background="new    " d="M687.2,115.8l34.4-1.2c0,0,6.3-11.8-1.4-24.3l-32.7-0.6c-2,0-3.5,1.9-3,3.8
	c1.4,5.2,3.3,14.3,0.8,19.6C684.7,114.4,685.8,115.9,687.2,115.8z"/>
<path fill="#515050" enable-background="new    " d="M638,195.7l39.3-4.9c0,0-1.2-58.6-2.6-69h-38.1
	C635.6,121,637.7,195.9,638,195.7z"/>
<path fill="#515050" enable-background="new    " d="M639.1,115.8l34.4-1.2c0,0,6.3-11.8-1.4-24.3l-32.7-0.7c-2,0-3.5,1.9-3,3.8
	c1.4,5.2,3.3,14.3,0.8,19.6C636.5,114.4,637.6,115.9,639.1,115.8z"/>
<polygon fill="#C71D1B" enable-background="new    " points="555.1,289.2 737.3,253.6 733.8,201.5 553.7,221.7 "/>
<path fill="#515050" enable-background="new    " d="M542.8,115.8l34.4-1.2c0,0,6.3-11.8-1.4-24.3l-32.7-0.6c-2,0-3.5,1.9-3,3.8
	c1.4,5.2,3.3,14.3,0.8,19.6C540.2,114.4,541.3,115.9,542.8,115.8z"/>
<path fill="#515050" enable-background="new    " d="M438.1,122.3h-42.4c-1-1,1.3,103.5,1.6,103.1l43.7-6.8
	C441.1,218.5,439.8,136.8,438.1,122.3z"/>
<path fill="#515050" enable-background="new    " d="M398.3,115.8l34.4-1.2c0,0,6.3-11.8-1.4-24.3l-32.7-0.6c-2,0-3.5,1.9-3,3.8
	c1.4,5.2,3.3,14.3,0.8,19.6C395.8,114.4,396.8,115.9,398.3,115.8z"/>
<path fill="#515050" enable-background="new    " d="M447.8,89.6c-2,0-3.5,1.9-3,3.8c1.4,5.2,3.3,14.3,0.8,19.6
	c-0.6,1.3,0.4,2.9,1.9,2.8l34.4-1.2c0,0,6.3-11.8-1.4-24.3L447.8,89.6z"/>
<path fill="#515050" enable-background="new    " d="M447.9,218.1l40-6.3c0,0-1.2-75.3-2.7-88.7h-38.8
	C445.6,122.2,447.6,218.4,447.9,218.1z"/>
<path fill="#515050" enable-background="new    " d="M495.6,115.8l34.4-1.2c0,0,6.3-11.8-1.4-24.3l-32.7-0.6c-2,0-3.5,1.9-3,3.8
	c1.4,5.2,3.3,14.3,0.8,19.6C493.1,114.4,494.1,115.9,495.6,115.8z"/>
<path fill="#515050" enable-background="new    " d="M494.5,212.3l39.3-5.9c0,0-1.2-70.8-2.6-83.4h-38.1
	C492.2,122.1,494.2,212.6,494.5,212.3z"/>
<path fill="#515050" enable-background="new    " d="M138,228.5l-1.4-152.1c-27.4-7-63.5,1.4-63.5,1.4L74,225.2
	C75.9,234.6,138,228.5,138,228.5z"/>
<path fill="#515050" enable-background="new    " d="M216.4,228.1V83.9c-16.2-9.7-65.8-8.3-65.8-8.3v151.6
	C158,233.6,216.4,228.1,216.4,228.1z"/>
<circle fill="#515050" enable-background="new    " cx="106.7" cy="311.5" r="18.1"/>
<path fill="#C71D1B" enable-background="new    " d="M880.2,72.3l-1.8-1.2c-0.5-0.3-1.1-0.5-1.6-0.5l-484.2-2.8c-0.1,0-0.1,0-0.2,0
	L245.8,55.7C61,38.9,25.2,68.4,24.9,68.7c0.1-0.1,0.2-0.2,0.2-0.2c-1.8-1.8-5-0.6-5,2l-2.7,263.2c0,0.4-0.1,0.7-0.2,1.1
	c-1.5,3.5-10.1,24.6-11.7,38.7c-0.8,6.9,0.1,12.2,4.4,12.7c0,0,159.7,32.3,206.4,23.2c0.2,0,0.4-0.1,0.6-0.2
	c2.5-1.1,20-9.1,30.9-23.9c6.1-8.1,10.2-18.3,8.6-30.6c0-0.1,0-0.2,0-0.3l-2.8-280.2c0-1.4,1-2.7,2.4-2.9c11-1.9,57.6-8.3,109.5,6.3
	c1.2,0.4,2.1,1.5,2.1,2.8l3.7,283.9c0,0.3,0.1,0.6,0.1,0.9c0.9,2.7,6,16.6,15.2,15.6c0.8-0.1,1.5-0.5,2-1.1l3.7-4.6l-9.9-296
	l446.4-1.4L829,262v0.4c0.4-0.6,1-1,1.6-1.2l6-1.7V83.9c0,0,16-11.9,28.6,0.9l2.3,166.2l6.4-1.8c1.3-0.4,2.1-1.5,2.1-2.8l-0.2-165.7
	c0-1.4,1-2.6,2.4-2.9c0.4-0.1,0.8-0.2,1.2-0.3C881.7,76.8,882.2,73.7,880.2,72.3z M25.4,83.4c0,0,50.8-33.4,201-9l1.8,182.8
	l-0.2-15.3c-105.2,22.5-199.6-2.3-203.5-3.3L25.4,83.4z M24,335.9l0.5-87c54.8,30.5,203.7,8.3,203.7,8.3l1,103
	C229.1,360.2,40.7,348.4,24,335.9z"/>
<path fill="#515050" enable-background="new    " d="M783.5,115.8l34.4-1.2c0,0,6.3-11.8-1.4-24.3l-32.7-0.6c-2,0-3.5,1.9-3,3.8
	c1.4,5.2,3.3,14.3,0.8,19.6C781,114.4,782.1,115.9,783.5,115.8z"/>
<path fill="#515050" enable-background="new    " d="M735.4,115.8l34.4-1.2c0,0,6.3-11.8-1.4-24.3l-32.7-0.6c-2,0-3.5,1.9-3,3.8
	c1.4,5.2,3.3,14.3,0.8,19.6C732.8,114.4,733.9,115.9,735.4,115.8z"/>
<path fill="#515050" enable-background="new    " d="M734.3,186.9l39.3-4.3c0,0-1.2-51.1-2.6-60.2h-38.1
	C732,121.7,734,187.1,734.3,186.9z"/>
<path fill="#515050" enable-background="new    " d="M781,121.7c-0.9-0.6,1.2,60.8,1.5,60.6l38.7-4c0,0-1.2-48-2.6-56.6H781z"/>
<path fill="#515050" enable-background="new    " d="M686.1,191.3l39.3-4.7c0,0-1.2-55.5-2.6-65.3h-38.1
	C683.8,120.6,685.8,191.6,686.1,191.3z"/>
<path fill="#C71D1B" enable-background="new    " d="M416.3,360.1l19.5-21l379.4-73.2l9.9,10.4c0,0-9.6,21.6-32.4,2.3l-19,5.8
	c0,0-4.6,32.2-34.7,11l-17.1,3.8c0,0-8.1,30-37.1,8.1l-22.3,5.2c0,0-8.9,41.3-46.6,10.6l-21.9,4.8c0,0-15,53.6-50.9,12.4l-18.1,5.2
	c0,0-13.1,44.2-47.7,11.2l-15,3.5C462.1,360.4,433.1,408.3,416.3,360.1z"/>
</svg>
