<?xml version="1.0" encoding="utf-8"?>
<!-- Generator: Adobe Illustrator 18.1.1, SVG Export Plug-In . SVG Version: 6.00 Build 0)  -->
<svg version="1.1" id="Layer_1" xmlns="http://www.w3.org/2000/svg" xmlns:xlink="http://www.w3.org/1999/xlink" x="0px" y="0px"
	 viewBox="0 0 1411.9 673.2" enable-background="new 0 0 1411.9 673.2" xml:space="preserve">
<path opacity="0.3" fill="#D1A80E" d="M1360.5,578.5L932.2,431c0,0-222.5-78.7-363.7-128.5c-2-18.8-23.5-8.3-23.5-8.3
	c-3.2-1.2-6.3-2.3-9.5-3.3c0.7-0.8,1.5-1.5,2.3-2.3c1-0.8,0.7-2.3-0.5-2.8L481.1,265c-0.9-2-2.6-3.8-4.9-4.7c-1.8-0.7-3.7-1.3-5.7-2
	v-0.2v-33.8c0-0.3-0.2-0.7-0.3-0.8l-4.2-3.2c-0.3-0.2-0.3-0.5-0.3-0.8v-63.2c0-0.7,0.5-1.2,1.3-1.2h5.3c0.7,0,1.3-0.5,1.3-1.2v-19
	c0,0,0.2-1.3,0-3.3c33.2,9.7,66.3,19.3,99.3,29.2c48.8,14.7,97.7,29.7,146.2,45.7c33.7,11.2,67.7,22.3,100.3,36.7
	c30.7,13.5,53.8,39,62.2,72c3.2,12.3,2.8,79.5,30,62.3c14.8-9.5,23.3-26.2,30-42c7.7-18.3,14.8-37.3,21.5-56.2
	c15.3-43.8,26.2-89,33.2-134.8c20.2-135.6-40.6-62.6-76.1-8.4s-499.3-58-499.3-58S200.2,25.8,112.2,4.3S1.9,48.3,1.9,48.3
	c-4.2,25-2.2,52.5,15.2,72.3c10.3,12,25.2,18.5,39.8,23.5c47,15.8,93.5,32.5,140.3,49c50.7,18,101.5,36,152.2,54
	c3.8,1.3,7.7,2.7,11.7,4.2l97.3,34.3c1.8,0.6,3.6,0.8,5.5,0.6l1.7,0.6l-1,1.5l-22.7,32.2l-39.8-14.3l-4.2-1.7l-10.8-3.3
	c-0.8-0.3-2.2-3-2.7-3.7c-9-12-18.7-21.3-30.7-30.5c-53.8,3.7-28.3,50.8-28.3,50.8c14.3,5.7,49.8,1.7,50,1.7s18.2,8.5,25,10.8
	c0,0,8.2,2.8,21.8,7.8c0.5,2,1.3,4.2,2.7,6.7l81.8,27.5c0.7,0.2,1.8-2,1.8-2.7c0-0.3,0-0.5-0.2-0.8c102,36.2,239.3,85,239.3,85
	l585.3,215c20.8,5.8,68.3,11.3,77-22.5C1424,594.1,1360.5,578.5,1360.5,578.5z M904.4,266.3c7.2-35.3,18.3-69,31-106.2
	c0.3-0.8,0.7-2.2,1.2-3.8c7.7-24.2,16.5-47.2,29.3-51.5c4.2-1.5,8.5-0.8,12.3,1.8c8.6,5.8,8.3,20.5,8,29.3v1.2c0,3-2.5,5.5-5.7,5.5
	h-0.2c-3.2,0-5.5-2.7-5.5-5.7v-1.3c0.3-11.5-0.7-18.2-2.8-19.7c-1.2-0.8-1.8-0.7-2.3-0.5c-4.2,1.5-11.5,10.3-22.3,44.2
	c-0.5,1.7-1,3-1.3,4c-12.7,36.8-23.7,70-30.7,104.8c-4.5,22.3-8.3,44-4.3,63.8c0.7,3-1.3,6-4.3,6.7c-0.3,0-0.7,0.2-1.2,0.2
	c-2.7,0-5-1.8-5.5-4.5C895.6,312.8,899.6,289.8,904.4,266.3z M110.7,102.6c0,1.5-1.8,2.3-3.2,1.7l-3-1.3c-1.5-0.7-3.2,0.3-3.2,1.7
	v25.7c-4.5-1.5-9.2-3-13.7-4.5c-13.6-4.5-29.1-7.3-40.6-16.8c-0.5-0.3-0.8-0.7-1.3-1c-12.2-11-18-29.3-14.8-45.5
	c3.3-16.8,20.2-27.3,35.7-31.7c13.7-3.8,26.8-2.8,40-0.2l-0.2,2.3v0.2v17.9c0,1,1,2,2.2,2c1.2,0,2.2,0.8,2.2,2L110.7,102.6z
	 M177.5,125.7h-0.2v0.1c0,1.5-1.8,2.5-3.3,1.7l-2.8-1.5c-1.5-0.7-3.3,0.2-3.3,1.7V154c-9.3-3.3-18.7-6.5-27.8-9.7
	c-4.5-1.7-9-3.2-13.7-4.8v-24.2c0-0.5-0.3-1.2-0.8-1.5l-2.8-2.2c-0.5-0.3-0.8-0.8-0.8-1.5V54.9c0-1,1-2,2.2-2h2.7
	c1.2,0,2.2-0.8,2.2-2V36.4c3.5,1,7.2,2,10.7,3c11.3,3,22.7,6,34,9l-0.7,7.3v0.2v18c0,1,1,2,2.2,2s2.2,0.8,2.2,2V125.7z M442.2,218.3
	v30.3c-13.5-4.7-27.2-9.3-40.7-13.8c-53.7-18.3-107.2-36.8-160.8-55.3C225,174,209,168.5,193,163v-24.9c0-0.7-0.3-1.2-1-1.7
	l-2.5-1.5c-0.7-0.3-1-1-1-1.7V77.7c0-1,1-2,2.2-2h2.5c1.2,0,2.2-0.8,2.2-2V57.4c0,0,0.2-1.3,0-3.3c19.8,5.3,39.7,10.7,59.5,16.2
	c51.3,14,102.5,28.3,153.7,42.8c13.3,3.8,26.7,7.5,39.8,11.3l-0.8,8.3c0,0,0,0,0,0.2v21c0,0.7,0.5,1.2,1.3,1.2h2.5
	c0.7,0,1.3,0.5,1.3,1.2v56h0.1c0,0.8-1,1.3-1.8,1C446.8,211.6,442.2,214.3,442.2,218.3z M511.4,344.5l-43.3-15.8l20.8-32l44.3,15.5
	L511.4,344.5z M1391.9,639.8c-14.7,21.7-63.3,4.7-63.3,4.7L540.2,355.3l20.7-33.5l776,270.2C1407.7,615.1,1391.9,639.8,1391.9,639.8
	z"/>
</svg>
