<?xml version="1.0" encoding="utf-8"?>
<!-- Generator: Adobe Illustrator 18.1.1, SVG Export Plug-In . SVG Version: 6.00 Build 0)  -->
<svg version="1.1" id="Layer_1" xmlns="http://www.w3.org/2000/svg" xmlns:xlink="http://www.w3.org/1999/xlink" x="0px" y="0px"
	 viewBox="0 0 1000 1000" enable-background="new 0 0 1000 1000" xml:space="preserve">
<path fill="none" stroke="#030404" stroke-width="19" stroke-miterlimit="10" d="M387.5,868.6"/>
<path fill="#4B4648" d="M500,42.2c8.5,3.1,27.8,8.7,34.8-0.2c0.7-0.9,0.7-2.2,0.4-3.2L521,2.8c-1.4-3.4-6.8-3.8-8.1-0.6L497.4,37
	C496.6,39,497.7,41.4,500,42.2z"/>
<g>
	<path fill="#4B4648" d="M405.5,159.3c20.2-36.3,41.2-68.1,56-89.2l-18.8-1.5c-19.2,1.6-282.3,25.6-383,174.8
		c-0.6,0.9-1,1.8-1.2,2.8c-0.2,0.2-0.4,0.6-0.4,0.9l0.2,39.4c0,0.7,0.6,1.4,1.4,1.4H71c0.7,0,1.4-0.6,1.4-1.4v-30.8
		c5.3-0.1,11-0.1,17,0l0.1,76.1c0,0.7,0.6,1.4,1.4,1.4h11.3c0.7,0,1.4-0.6,1.4-1.4l-0.1-75.7c6.5,0.2,13.3,0.6,20.4,1.1l0.1,60.1
		c0,0.7,0.6,1.4,1.4,1.4h11.3c0.7,0,1.4-0.6,1.4-1.4l-0.1-58.8c4.4,0.4,8.9,0.9,13.4,1.5l0.1,79.5c0,0.7,0.6,1.4,1.4,1.4H164
		c0.7,0,1.4-0.6,1.4-1.4l-0.1-77.7c1.5,0.2,3,0.4,4.4,0.6c4.3,0.6,8.6,1.4,12.8,2.1l0.1,66.2c0,0.7,0.6,1.4,1.4,1.4h11.3
		c0.7,0,1.4-0.6,1.4-1.4l-0.1-63.5c4.8,1,9.5,2,14.2,3.1l0.1,76.3c0,0.7,0.6,1.4,1.4,1.4h11.3c0.7,0,1.4-0.6,1.4-1.4l-0.1-72.9
		c5.8,1.6,11.6,3.2,17.2,4.9l0.1,59.2c0,0.7,0.6,1.4,1.4,1.4h11.3c0.7,0,1.4-0.6,1.4-1.4l-0.1-54.6c4.8,1.6,9.5,3.3,14.2,5.2
		l0.1,65.5c0,0.7,0.6,1.4,1.4,1.4h11.3c0.7,0,1.4-0.6,1.4-1.4l-0.1-59.7c5.9,2.5,11.6,5,17.2,7.8l0.1,43.2c0,0.7,0.6,1.4,1.4,1.4
		h11.3c0.7,0,1.4-0.6,1.4-1.4v-36.1c5.7,3.1,11.2,6.2,16.6,9.5v43c0,0.7,0.6,1.4,1.4,1.4h11.3c0.7,0,1.4-0.6,1.4-1.4V319
		C350.7,275.9,370.3,222.6,405.5,159.3z"/>
</g>
<g>
	<path fill="#FFFFFF" d="M644.4,341.3c0.2-0.6,0.4-1.4,0.4-2.1c-2-163.7-104.2-249.7-123.6-264.4L498,73
		c-41.2,56.2-119.3,179.9-120.4,259c-0.1,0.2-0.2,0.5-0.2,0.7l0.1,60.6c0,0.7,0.6,1.4,1.4,1.4h11.3c0.7,0,1.4-0.6,1.4-1.4v-56
		c5.7-1.2,11.9-2.5,18.8-3.8l0.1,45.4c0,0.7,0.6,1.4,1.4,1.4h11.3c0.7,0,1.4-0.6,1.4-1.4l-0.1-47.9c4.7-0.7,9.6-1.5,14.6-2.2
		l0.1,60.2c0,0.7,0.6,1.4,1.4,1.4h11.3c0.7,0,1.4-0.6,1.4-1.4l-0.1-61.9c5.8-0.6,11.6-1.2,17.6-1.7l0.1,49.1c0,0.7,0.6,1.4,1.4,1.4
		h11.3c0.7,0,1.4-0.6,1.4-1.4l-0.1-50c4.8-0.2,9.7-0.5,14.6-0.6l0.1,60.8c0,0.7,0.6,1.4,1.4,1.4h11.3c0.7,0,1.4-0.6,1.4-1.4
		l-0.1-60.9c5.8,0,11.7,0.1,17.7,0.5l0.1,46c0,0.7,0.6,1.4,1.4,1.4h11.3c0.7,0,1.4-0.6,1.4-1.4l-0.1-45c4.9,0.4,9.7,0.9,14.6,1.4
		l0.1,53.9c0,0.7,0.6,1.4,1.4,1.4h11.3c0.7,0,1.4-0.6,1.4-1.4l-0.1-51.9c7.9,1.2,15.5,2.7,22.9,4.4v33.2c0,0.7,0.6,1.4,1.4,1.4h11.3
		c0.7,0,1.4-0.6,1.4-1.4v-29.5c6.6,2,13.2,4.1,19.4,6.4l-1.4,39.9c0,0.7,0.6,1.5,1.4,1.5l11.3,0.4c0.7,0,1.5-0.6,1.5-1.4
		L644.4,341.3z"/>
</g>
<g>
	<path fill="#4B4648" d="M941.8,312.7c0.2-1,0.1-2,0-3l0,0v-0.1c-0.1-0.5-0.2-1.1-0.5-1.6c-8.4-19.9-19-44.1-41.5-69.8
		c-49.9-57-144.8-130.6-313-158.2l-13.9-1.1c39.1,40.4,95.8,119,102.6,239.6c-0.1,0.2-0.2,0.5-0.2,0.9l0.1,80.9
		c0,0.7,0.6,1.4,1.4,1.4h11.3c0.7,0,1.4-0.6,1.4-1.4l-0.1-60.1c5.7-2.6,11.9-5.2,18.7-7.9l0.1,46.8c0,0.7,0.6,1.4,1.4,1.4h11.3
		c0.7,0,1.4-0.6,1.4-1.4l-0.1-51.8c5-1.7,10.2-3.3,15.8-5l0.1,60.3c0,0.7,0.6,1.4,1.4,1.4h11.3c0.7,0,1.4-0.6,1.4-1.4l-0.1-64.1
		c6-1.5,12.3-3,18.7-4.2l0.1,47.3c0,0.7,0.6,1.4,1.4,1.4h11.3c0.7,0,1.4-0.6,1.4-1.4l-0.1-49.7c5.2-0.9,10.3-1.6,15.8-2.2l0.1,55.4
		c0,0.7,0.6,1.4,1.4,1.4h11.3c0.7,0,1.4-0.6,1.4-1.4l-0.1-56.7c5.2-0.4,10.3-0.7,15.8-0.9l0.1,61c0,0.7,0.6,1.4,1.4,1.4h11.3
		c0.7,0,1.4-0.6,1.4-1.4l-0.1-61.2c6.2,0,12.4,0.2,18.7,0.6v39.4c0,0.7,0.6,1.4,1.4,1.4h11.3c0.7,0,1.4-0.6,1.4-1.4V309
		c5.3,0.5,10.6,1.1,15.9,2l0.1,58.7c0,0.7,0.6,1.4,1.4,1.4h11.3c0.7,0,1.4-0.6,1.4-1.4l-0.1-56.4c7.3,1.5,13.7,3.1,20.3,5v18
		c0,0.7,0.6,1.4,1.4,1.4h11.3c0.7,0,1.4-0.6,1.4-1.4L941.8,312.7z"/>
</g>
<path fill="none" stroke="#030404" stroke-width="19" stroke-miterlimit="10" d="M499,412.4"/>
<g>
	<path fill="#4B4648" d="M387.4,999.8c-12.2-1.5-24.6-10-37-25.4c-3.4-4.2-2.7-10.5,1.5-13.8c4.2-3.4,10.5-2.7,13.8,1.5
		c11.6,14.4,21.7,20.3,29.9,17.5c14.3-4.9,50.2-42.7,73.6-287.5C482.2,555.4,485,420.3,485,419c0.1-5.4,4.6-9.7,10-9.6
		s9.7,4.6,9.6,10c0,1.4-2.7,137-15.9,274.6c-7.8,81-17.6,146.8-29.3,195.8c-15.6,65.8-34,100.3-57.6,108.4
		C397.2,999.9,392.3,1000.4,387.4,999.8z"/>
</g>
</svg>
