<?xml version="1.0" encoding="utf-8"?>
<!-- Generator: Adobe Illustrator 18.1.1, SVG Export Plug-In . SVG Version: 6.00 Build 0)  -->
<svg version="1.1" id="Layer_1" xmlns="http://www.w3.org/2000/svg" xmlns:xlink="http://www.w3.org/1999/xlink" x="0px" y="0px"
	 viewBox="0 0 718.2 812.5" enable-background="new 0 0 718.2 812.5" xml:space="preserve">
<g>
	<path fill="none" stroke="#030404" stroke-width="19" stroke-miterlimit="10" d="M267.7,705.7"/>
	<path fill="#030404" d="M359.1,34.3c6.9,2.5,22.6,7.1,28.3-0.2c0.6-0.7,0.6-1.8,0.3-2.6L376.2,2.3c-1.1-2.8-5.5-3.1-6.6-0.5
		L357,30.1C356.3,31.7,357.2,33.6,359.1,34.3z"/>
	<g>
		<path fill="#030404" d="M282.3,129.4c16.4-29.5,33.5-55.3,45.5-72.5l-15.3-1.2C296.9,57,83.1,76.5,1.3,197.7
			c-0.5,0.7-0.8,1.5-1,2.3c-0.2,0.2-0.3,0.5-0.3,0.7l0.2,32c0,0.6,0.5,1.1,1.1,1.1l9.2,0c0.6,0,1.1-0.5,1.1-1.1l0-25
			c4.3-0.1,8.9-0.1,13.8,0l0.1,61.8c0,0.6,0.5,1.1,1.1,1.1l9.2,0c0.6,0,1.1-0.5,1.1-1.1l-0.1-61.5c5.3,0.2,10.8,0.5,16.6,0.9
			l0.1,48.8c0,0.6,0.5,1.1,1.1,1.1l9.2,0c0.6,0,1.1-0.5,1.1-1.1l-0.1-47.8c3.6,0.3,7.2,0.7,10.9,1.2l0.1,64.6c0,0.6,0.5,1.1,1.1,1.1
			l9.2,0c0.6,0,1.1-0.5,1.1-1.1l-0.1-63.1c1.2,0.2,2.4,0.3,3.6,0.5c3.5,0.5,7,1.1,10.4,1.7l0.1,53.8c0,0.6,0.5,1.1,1.1,1.1l9.2,0
			c0.6,0,1.1-0.5,1.1-1.1l-0.1-51.6c3.9,0.8,7.7,1.6,11.5,2.5l0.1,62c0,0.6,0.5,1.1,1.1,1.1l9.2,0c0.6,0,1.1-0.5,1.1-1.1l-0.1-59.2
			c4.7,1.3,9.4,2.6,14,4l0.1,48.1c0,0.6,0.5,1.1,1.1,1.1l9.2,0c0.6,0,1.1-0.5,1.1-1.1l-0.1-44.4c3.9,1.3,7.7,2.7,11.5,4.2l0.1,53.2
			c0,0.6,0.5,1.1,1.1,1.1l9.2,0c0.6,0,1.1-0.5,1.1-1.1l-0.1-48.5c4.8,2,9.4,4.1,14,6.3l0.1,35.1c0,0.6,0.5,1.1,1.1,1.1l9.2,0
			c0.6,0,1.1-0.5,1.1-1.1l0-29.3c4.6,2.5,9.1,5,13.5,7.7l0,34.9c0,0.6,0.5,1.1,1.1,1.1l9.2,0c0.6,0,1.1-0.5,1.1-1.1l0-34.6
			C237.8,224.2,253.7,180.9,282.3,129.4z"/>
	</g>
	<g>
		<path fill="#AD861C" d="M476.4,277.3c0.2-0.5,0.3-1.1,0.3-1.7C475.1,142.6,392,72.7,376.3,60.8l-18.8-1.5
			c-33.5,45.7-96.9,146.2-97.8,210.4c-0.1,0.2-0.2,0.4-0.2,0.6l0.1,49.2c0,0.6,0.5,1.1,1.1,1.1l9.2,0c0.6,0,1.1-0.5,1.1-1.1L271,274
			c4.6-1,9.7-2,15.3-3.1l0.1,36.9c0,0.6,0.5,1.1,1.1,1.1l9.2,0c0.6,0,1.1-0.5,1.1-1.1l-0.1-38.9c3.8-0.6,7.8-1.2,11.9-1.8l0.1,48.9
			c0,0.6,0.5,1.1,1.1,1.1l9.2,0c0.6,0,1.1-0.5,1.1-1.1l-0.1-50.3c4.7-0.5,9.4-1,14.3-1.4l0.1,39.9c0,0.6,0.5,1.1,1.1,1.1l9.2,0
			c0.6,0,1.1-0.5,1.1-1.1l-0.1-40.6c3.9-0.2,7.9-0.4,11.9-0.5l0.1,49.4c0,0.6,0.5,1.1,1.1,1.1l9.2,0c0.6,0,1.1-0.5,1.1-1.1
			l-0.1-49.5c4.7,0,9.5,0.1,14.4,0.4l0.1,37.4c0,0.6,0.5,1.1,1.1,1.1l9.2,0c0.6,0,1.1-0.5,1.1-1.1l-0.1-36.6c4,0.3,7.9,0.7,11.9,1.1
			l0.1,43.8c0,0.6,0.5,1.1,1.1,1.1l9.2,0c0.6,0,1.1-0.5,1.1-1.1l-0.1-42.2c6.4,1,12.6,2.2,18.6,3.6l0,27c0,0.6,0.5,1.1,1.1,1.1
			l9.2,0c0.6,0,1.1-0.5,1.1-1.1l0-24c5.4,1.6,10.7,3.3,15.8,5.2l-1.1,32.4c0,0.6,0.5,1.2,1.1,1.2l9.2,0.3c0.6,0,1.2-0.5,1.2-1.1
			L476.4,277.3z"/>
	</g>
	<g>
		<path fill="#030404" d="M718.1,254.1c0.2-0.8,0.1-1.6,0-2.4v0c0,0,0-0.1,0-0.1c-0.1-0.4-0.2-0.9-0.4-1.3
			c-6.8-16.2-15.4-35.8-33.7-56.7C643.4,147.2,566.3,87.4,429.6,65l-11.3-0.9c31.8,32.8,77.8,96.7,83.4,194.7
			c-0.1,0.2-0.2,0.4-0.2,0.7l0.1,65.7c0,0.6,0.5,1.1,1.1,1.1l9.2,0c0.6,0,1.1-0.5,1.1-1.1l-0.1-48.8c4.6-2.1,9.7-4.2,15.2-6.4
			l0.1,38c0,0.6,0.5,1.1,1.1,1.1l9.2,0c0.6,0,1.1-0.5,1.1-1.1l-0.1-42.1c4.1-1.4,8.3-2.7,12.8-4.1l0.1,49c0,0.6,0.5,1.1,1.1,1.1
			l9.2,0c0.6,0,1.1-0.5,1.1-1.1l-0.1-52.1c4.9-1.2,10-2.4,15.2-3.4l0.1,38.4c0,0.6,0.5,1.1,1.1,1.1l9.2,0c0.6,0,1.1-0.5,1.1-1.1
			l-0.1-40.4c4.2-0.7,8.4-1.3,12.8-1.8l0.1,45c0,0.6,0.5,1.1,1.1,1.1l9.2,0c0.6,0,1.1-0.5,1.1-1.1l-0.1-46.1
			c4.2-0.3,8.4-0.6,12.8-0.7l0.1,49.6c0,0.6,0.5,1.1,1.1,1.1l9.2,0c0.6,0,1.1-0.5,1.1-1.1l-0.1-49.7c5,0,10.1,0.2,15.2,0.5l0,32
			c0,0.6,0.5,1.1,1.1,1.1l9.2,0c0.6,0,1.1-0.5,1.1-1.1l0-31.1c4.3,0.4,8.6,0.9,12.9,1.6l0.1,47.7c0,0.6,0.5,1.1,1.1,1.1l9.2,0
			c0.6,0,1.1-0.5,1.1-1.1l-0.1-45.8c5.9,1.2,11.1,2.5,16.5,4.1l0,14.6c0,0.6,0.5,1.1,1.1,1.1l9.2,0c0.6,0,1.1-0.5,1.1-1.1
			L718.1,254.1z"/>
	</g>
	<path fill="none" stroke="#030404" stroke-width="19" stroke-miterlimit="10" d="M358.3,335.1"/>
	<g>
		<path fill="#030404" d="M267.6,812.3c-9.9-1.2-20-8.1-30.1-20.6c-2.8-3.4-2.2-8.5,1.2-11.2c3.4-2.8,8.5-2.2,11.2,1.2
			c9.4,11.7,17.6,16.5,24.3,14.2c11.6-4,40.8-34.7,59.8-233.6c10.6-111.1,12.8-220.8,12.8-221.9c0.1-4.4,3.7-7.9,8.1-7.8
			c4.4,0.1,7.9,3.7,7.8,8.1c0,1.1-2.2,111.3-12.9,223.1c-6.3,65.8-14.3,119.3-23.8,159.1c-12.7,53.5-27.6,81.5-46.8,88.1
			C275.6,812.4,271.6,812.8,267.6,812.3z"/>
	</g>
</g>
</svg>
