<?xml version="1.0" encoding="utf-8"?>
<!-- Generator: Adobe Illustrator 18.1.1, SVG Export Plug-In . SVG Version: 6.00 Build 0)  -->
<svg version="1.1" id="Layer_1" xmlns="http://www.w3.org/2000/svg" xmlns:xlink="http://www.w3.org/1999/xlink" x="0px" y="0px"
	 viewBox="0 0 721.6 827.9" enable-background="new 0 0 721.6 827.9" xml:space="preserve">
<g opacity="0.4">
	<path opacity="0.3" fill="none" stroke="#030404" stroke-width="19" stroke-miterlimit="10" d="M326.5,722"/>
	<path opacity="0.3" fill="#FFFFFF" d="M336.5,44.5c7.2,1.7,23.3,4.4,28.1-3.6c0.5-0.8,0.4-1.8-0.1-2.7l-15-27.6
		c-1.4-2.6-5.8-2.4-6.6,0.3l-9.1,29.7C333.3,42.3,334.5,44,336.5,44.5z"/>
	<g opacity="0.3">
		<path fill="#FFFFFF" d="M308.1,70.8l-15.3,0.6C277.5,74.6,67.5,119.6,0.9,249.8c-0.4,0.8-0.6,1.6-0.7,2.4
			c-0.2,0.3-0.3,0.5-0.2,0.7l4,31.7c0.1,0.6,0.6,1.1,1.3,1l9.1-1.1c0.6-0.1,1.1-0.6,1-1.3l-3-24.8c4.3-0.6,8.9-1.1,13.7-1.6
			l7.5,61.4c0.1,0.6,0.6,1.1,1.3,1L44,318c0.6-0.1,1.1-0.6,1-1.3l-7.5-61.1c5.3-0.4,10.8-0.8,16.6-1.1L60,303c0.1,0.6,0.6,1.1,1.3,1
			l9.1-1.1c0.6-0.1,1.1-0.6,1-1.3l-5.8-47.4c3.6-0.1,7.3-0.1,11-0.1l7.9,64.1c0.1,0.6,0.6,1.1,1.3,1l9.1-1.1c0.6-0.1,1.1-0.6,1-1.3
			l-7.7-62.6c1.2,0,2.4,0,3.6,0.1c3.5,0.1,7.1,0.3,10.6,0.4l6.5,53.4c0.1,0.6,0.6,1.1,1.3,1l9.1-1.1c0.6-0.1,1.1-0.6,1-1.3
			l-6.3-51.2c4,0.3,7.9,0.7,11.8,1.1l7.6,61.6c0.1,0.6,0.6,1.1,1.3,1l9.1-1.1c0.6-0.1,1.1-0.6,1-1.3l-7.2-58.7
			c4.8,0.7,9.6,1.4,14.4,2.3l5.9,47.7c0.1,0.6,0.6,1.1,1.3,1l9.1-1.1c0.6-0.1,1.1-0.6,1-1.3l-5.4-44c4,0.9,8,1.8,12,2.7l6.5,52.8
			c0.1,0.6,0.6,1.1,1.3,1l9.1-1.1c0.6-0.1,1.1-0.6,1-1.3l-5.9-48.2c5,1.4,9.8,3,14.7,4.6l4.3,34.9c0.1,0.6,0.6,1.1,1.3,1l9.1-1.1
			c0.6-0.1,1.1-0.6,1-1.3l-3.6-29.1c4.9,1.9,9.7,3.9,14.4,6l4.2,34.6c0.1,0.6,0.6,1.1,1.3,1l9.1-1.1c0.6-0.1,1.1-0.6,1-1.3
			l-4.2-34.3c-1.1-34.8,9.5-79.7,31.7-134.2C284.4,117,298.3,89.3,308.1,70.8z"/>
	</g>
	<g opacity="0.3">
		<path fill="#FFFFFF" d="M482.2,271.7c0.1-0.6,0.2-1.1,0.1-1.8C464.6,138,373.7,78.7,356.8,68.8l-18.8,0.8
			c-27.7,49.4-78.6,156.8-71.7,220.7c-0.1,0.2-0.2,0.4-0.1,0.7l6,48.8c0.1,0.6,0.6,1.1,1.3,1l9.1-1.1c0.6-0.1,1.1-0.6,1-1.3
			l-5.5-45.2c4.5-1.5,9.4-3.2,14.9-4.9l4.5,36.7c0.1,0.6,0.6,1.1,1.3,1l9.1-1.1c0.6-0.1,1.1-0.6,1-1.3l-4.7-38.6
			c3.7-1.1,7.6-2.1,11.6-3.2l6,48.5c0.1,0.6,0.6,1.1,1.3,1l9.1-1.1c0.6-0.1,1.1-0.6,1-1.3l-6.1-49.9c4.6-1.1,9.3-2.1,14.1-3.1
			l4.9,39.6c0.1,0.6,0.6,1.1,1.3,1l9.1-1.1c0.6-0.1,1.1-0.6,1-1.3l-4.9-40.3c3.9-0.7,7.8-1.3,11.7-1.9l6,49c0.1,0.6,0.6,1.1,1.3,1
			l9.1-1.1c0.6-0.1,1.1-0.6,1-1.3l-6-49.1c4.7-0.6,9.5-1,14.3-1.4L394,306c0.1,0.6,0.6,1.1,1.3,1l9.1-1.1c0.6-0.1,1.1-0.6,1-1.3
			l-4.5-36.4c4-0.2,7.9-0.3,11.9-0.3l5.3,43.4c0.1,0.6,0.6,1.1,1.3,1l9.1-1.1c0.6-0.1,1.1-0.6,1-1.3l-5.1-41.9
			c6.4,0.2,12.7,0.7,18.9,1.3l3.3,26.8c0.1,0.6,0.6,1.1,1.3,1l9.1-1.1c0.6-0.1,1.1-0.6,1-1.3L455,271c5.6,0.9,11,2,16.3,3.3
			l2.9,32.3c0.1,0.6,0.6,1.1,1.2,1l9.2-0.8c0.6-0.1,1.1-0.6,1-1.2L482.2,271.7z"/>
	</g>
	<g opacity="0.3">
		<path fill="#FFFFFF" d="M719.3,219.5c0.1-0.8,0-1.6-0.3-2.4l0,0c0,0,0-0.1,0-0.1c-0.1-0.4-0.3-0.9-0.5-1.3
			c-8.7-15.2-19.6-33.7-40.3-52.2c-45.9-41.1-129.6-91.3-268-97L398.9,67c35.5,28.7,88.8,86.6,106.2,183.2c-0.1,0.2-0.2,0.4-0.2,0.7
			l8,65.2c0.1,0.6,0.6,1.1,1.3,1l9.1-1.1c0.6-0.1,1.1-0.6,1-1.3l-5.9-48.4c4.3-2.6,9.1-5.4,14.4-8.2l4.6,37.7c0.1,0.6,0.6,1.1,1.3,1
			l9.1-1.1c0.6-0.1,1.1-0.6,1-1.3l-5.1-41.8c3.9-1.9,7.9-3.7,12.2-5.6l6,48.6c0.1,0.6,0.6,1.1,1.3,1l9.1-1.1c0.6-0.1,1.1-0.6,1-1.3
			l-6.3-51.7c4.7-1.8,9.6-3.6,14.7-5.2l4.7,38.1c0.1,0.6,0.6,1.1,1.3,1l9.1-1.1c0.6-0.1,1.1-0.6,1-1.3l-4.9-40.1
			c4.1-1.2,8.2-2.3,12.5-3.3l5.5,44.6c0.1,0.6,0.6,1.1,1.3,1l9.1-1.1c0.6-0.1,1.1-0.6,1-1.3l-5.6-45.7c4.1-0.8,8.3-1.6,12.6-2.2
			l6,49.2c0.1,0.6,0.6,1.1,1.3,1l9.1-1.1c0.6-0.1,1.1-0.6,1-1.3l-6.1-49.4c5-0.6,10-1,15.2-1.3l3.9,31.8c0.1,0.6,0.6,1.1,1.3,1
			l9.1-1.1c0.6-0.1,1.1-0.6,1-1.3l-3.8-30.9c4.3-0.1,8.6-0.1,13,0l5.8,47.4c0.1,0.6,0.6,1.1,1.3,1l9.1-1.1c0.6-0.1,1.1-0.6,1-1.3
			l-5.6-45.5c6,0.4,11.3,1.1,16.8,2.1l1.8,14.5c0.1,0.6,0.6,1.1,1.3,1l9.1-1.1c0.6-0.1,1.1-0.6,1-1.3L719.3,219.5z"/>
	</g>
	<path opacity="0.3" fill="none" stroke="#030404" stroke-width="19" stroke-miterlimit="10" d="M371.9,343.2"/>
	<g opacity="0.3">
		<path fill="#FFFFFF" d="M339.3,827.9c-10,0-20.8-5.6-32.3-16.8c-3.2-3.1-3.2-8.1-0.2-11.3c3.1-3.2,8.1-3.2,11.3-0.2
			c10.8,10.5,19.5,14.2,25.8,11.2c11.1-5.4,36.3-39.4,31.3-239.1c-2.8-111.6-13.8-220.7-14-221.8c-0.4-4.4,2.8-8.3,7.1-8.8
			c4.4-0.4,8.3,2.8,8.8,7.1c0.1,1.1,11.2,110.8,14,223c1.7,66.1,0.2,120.2-4.4,160.8c-6.2,54.7-17.6,84.3-35.9,93.1
			C347.2,827,343.3,827.9,339.3,827.9z"/>
	</g>
</g>
<path opacity="0.3" fill="none" stroke="#030404" stroke-width="19" stroke-miterlimit="10" d="M-445.5,684"/>
<path opacity="0.3" fill="#FFFFFF" d="M-435.5,6.5c7.2,1.7,23.3,4.4,28.1-3.6c0.5-0.8,0.4-1.8-0.1-2.7l-15-27.6
	c-1.4-2.6-5.8-2.4-6.6,0.3l-9.1,29.7C-438.7,4.3-437.5,6-435.5,6.5z"/>
<g opacity="0.3">
	<path fill="#FFFFFF" d="M-463.9,32.8l-15.3,0.6c-15.3,3.1-225.2,48.1-291.8,178.4c-0.4,0.8-0.6,1.6-0.7,2.4
		c-0.2,0.3-0.3,0.5-0.2,0.7l4,31.7c0.1,0.6,0.6,1.1,1.3,1l9.1-1.1c0.6-0.1,1.1-0.6,1-1.3l-3-24.8c4.3-0.6,8.9-1.1,13.7-1.6l7.5,61.4
		c0.1,0.6,0.6,1.1,1.3,1l9.1-1.1c0.6-0.1,1.1-0.6,1-1.3l-7.5-61.1c5.3-0.4,10.8-0.8,16.6-1.1l5.9,48.4c0.1,0.6,0.6,1.1,1.3,1
		l9.1-1.1c0.6-0.1,1.1-0.6,1-1.3l-5.8-47.4c3.6-0.1,7.3-0.1,11-0.1l7.9,64.1c0.1,0.6,0.6,1.1,1.3,1l9.1-1.1c0.6-0.1,1.1-0.6,1-1.3
		l-7.7-62.6c1.2,0,2.4,0,3.6,0.1c3.5,0.1,7.1,0.3,10.6,0.4l6.5,53.4c0.1,0.6,0.6,1.1,1.3,1l9.1-1.1c0.6-0.1,1.1-0.6,1-1.3l-6.3-51.2
		c4,0.3,7.9,0.7,11.8,1.1l7.6,61.6c0.1,0.6,0.6,1.1,1.3,1l9.1-1.1c0.6-0.1,1.1-0.6,1-1.3l-7.2-58.7c4.8,0.7,9.6,1.4,14.4,2.3
		l5.9,47.7c0.1,0.6,0.6,1.1,1.3,1l9.1-1.1c0.6-0.1,1.1-0.6,1-1.3l-5.4-44c4,0.9,8,1.8,12,2.7l6.5,52.8c0.1,0.6,0.6,1.1,1.3,1
		l9.1-1.1c0.6-0.1,1.1-0.6,1-1.3l-5.9-48.2c5,1.4,9.8,3,14.7,4.6l4.3,34.9c0.1,0.6,0.6,1.1,1.3,1l9.1-1.1c0.6-0.1,1.1-0.6,1-1.3
		l-3.6-29.1c4.9,1.9,9.7,3.9,14.4,6l4.2,34.6c0.1,0.6,0.6,1.1,1.3,1l9.1-1.1c0.6-0.1,1.1-0.6,1-1.3l-4.2-34.3
		c-1.1-34.8,9.5-79.7,31.7-134.2C-487.6,79-473.7,51.3-463.9,32.8z"/>
</g>
<g opacity="0.3">
	<path fill="#FFFFFF" d="M-289.8,233.7c0.1-0.6,0.2-1.1,0.1-1.8C-307.4,100-398.3,40.7-415.2,30.8l-18.8,0.8
		c-27.7,49.4-78.6,156.8-71.7,220.7c-0.1,0.2-0.2,0.4-0.1,0.7l6,48.8c0.1,0.6,0.6,1.1,1.3,1l9.1-1.1c0.6-0.1,1.1-0.6,1-1.3
		l-5.5-45.2c4.5-1.5,9.4-3.2,14.9-4.9l4.5,36.7c0.1,0.6,0.6,1.1,1.3,1l9.1-1.1c0.6-0.1,1.1-0.6,1-1.3l-4.7-38.6
		c3.7-1.1,7.6-2.1,11.6-3.2l6,48.5c0.1,0.6,0.6,1.1,1.3,1l9.1-1.1c0.6-0.1,1.1-0.6,1-1.3l-6.1-49.9c4.6-1.1,9.3-2.1,14.1-3.1
		l4.9,39.6c0.1,0.6,0.6,1.1,1.3,1l9.1-1.1c0.6-0.1,1.1-0.6,1-1.3l-4.9-40.3c3.9-0.7,7.8-1.3,11.7-1.9l6,49c0.1,0.6,0.6,1.1,1.3,1
		l9.1-1.1c0.6-0.1,1.1-0.6,1-1.3l-6-49.1c4.7-0.6,9.5-1,14.3-1.4l4.5,37.1c0.1,0.6,0.6,1.1,1.3,1l9.1-1.1c0.6-0.1,1.1-0.6,1-1.3
		l-4.5-36.4c4-0.2,7.9-0.3,11.9-0.3l5.3,43.4c0.1,0.6,0.6,1.1,1.3,1l9.1-1.1c0.6-0.1,1.1-0.6,1-1.3l-5.1-41.9
		c6.4,0.2,12.7,0.7,18.9,1.3l3.3,26.8c0.1,0.6,0.6,1.1,1.3,1l9.1-1.1c0.6-0.1,1.1-0.6,1-1.3L-317,233c5.6,0.9,11,2,16.3,3.3
		l2.9,32.3c0.1,0.6,0.6,1.1,1.2,1l9.2-0.8c0.6-0.1,1.1-0.6,1-1.2L-289.8,233.7z"/>
</g>
<g opacity="0.3">
	<path fill="#FFFFFF" d="M-52.7,181.5c0.1-0.8,0-1.6-0.3-2.4l0,0c0,0,0-0.1,0-0.1c-0.1-0.4-0.3-0.9-0.5-1.3
		c-8.7-15.2-19.6-33.7-40.3-52.2c-45.9-41.1-129.6-91.3-268-97l-11.3,0.5c35.5,28.7,88.8,86.6,106.2,183.2c-0.1,0.2-0.2,0.4-0.2,0.7
		l8,65.2c0.1,0.6,0.6,1.1,1.3,1l9.1-1.1c0.6-0.1,1.1-0.6,1-1.3l-5.9-48.4c4.3-2.6,9.1-5.4,14.4-8.2l4.6,37.7c0.1,0.6,0.6,1.1,1.3,1
		l9.1-1.1c0.6-0.1,1.1-0.6,1-1.3l-5.1-41.8c3.9-1.9,7.9-3.7,12.2-5.6l6,48.6c0.1,0.6,0.6,1.1,1.3,1l9.1-1.1c0.6-0.1,1.1-0.6,1-1.3
		l-6.3-51.7c4.7-1.8,9.6-3.6,14.7-5.2l4.7,38.1c0.1,0.6,0.6,1.1,1.3,1l9.1-1.1c0.6-0.1,1.1-0.6,1-1.3l-4.9-40.1
		c4.1-1.2,8.2-2.3,12.5-3.3l5.5,44.6c0.1,0.6,0.6,1.1,1.3,1l9.1-1.1c0.6-0.1,1.1-0.6,1-1.3l-5.6-45.7c4.1-0.8,8.3-1.6,12.6-2.2
		l6,49.2c0.1,0.6,0.6,1.1,1.3,1l9.1-1.1c0.6-0.1,1.1-0.6,1-1.3l-6.1-49.4c5-0.6,10-1,15.2-1.3l3.9,31.8c0.1,0.6,0.6,1.1,1.3,1
		l9.1-1.1c0.6-0.1,1.1-0.6,1-1.3l-3.8-30.9c4.3-0.1,8.6-0.1,13,0l5.8,47.4c0.1,0.6,0.6,1.1,1.3,1l9.1-1.1c0.6-0.1,1.1-0.6,1-1.3
		l-5.6-45.5c6,0.4,11.3,1.1,16.8,2.1l1.8,14.5c0.1,0.6,0.6,1.1,1.3,1l9.1-1.1c0.6-0.1,1.1-0.6,1-1.3L-52.7,181.5z"/>
</g>
<path opacity="0.3" fill="none" stroke="#030404" stroke-width="19" stroke-miterlimit="10" d="M-400.1,305.2"/>
<g opacity="0.3">
	<path fill="#FFFFFF" d="M-432.7,789.9c-10,0-20.8-5.6-32.3-16.8c-3.2-3.1-3.2-8.1-0.2-11.3c3.1-3.2,8.1-3.2,11.3-0.2
		c10.8,10.5,19.5,14.2,25.8,11.2c11.1-5.4,36.3-39.4,31.3-239.1c-2.8-111.6-13.8-220.7-14-221.8c-0.4-4.4,2.8-8.3,7.1-8.8
		c4.4-0.4,8.3,2.8,8.8,7.1c0.1,1.1,11.2,110.8,14,223c1.7,66.1,0.2,120.2-4.4,160.8c-6.2,54.7-17.6,84.3-35.9,93.1
		C-424.8,789-428.7,789.9-432.7,789.9z"/>
</g>
</svg>
